<svg aria-hidden="true" style="position: absolute; width: 0; height: 0; overflow: hidden;" version="1.1" xmlns="http://www.w3.org/2000/svg" xmlns:xlink="http://www.w3.org/1999/xlink">
<defs>
<symbol id="icon-up" viewBox="0 0 20 20">
<title>up</title>
<path d="M6.582 12.141c-0.271 0.268-0.709 0.268-0.978 0s-0.272-0.701 0-0.969l3.908-3.83c0.27-0.268 0.707-0.268 0.979 0l3.908 3.83c0.27 0.267 0.27 0.701 0 0.969s-0.709 0.268-0.979 0l-3.42-3.141-3.418 3.141z"></path>
</symbol>
<symbol id="icon-down" viewBox="0 0 20 20">
<title>down</title>
<path d="M13.418 7.859c0.271-0.268 0.709-0.268 0.978 0s0.272 0.701 0 0.969l-3.908 3.83c-0.27 0.268-0.707 0.268-0.979 0l-3.908-3.83c-0.27-0.267-0.27-0.701 0-0.969s0.709-0.268 0.978 0l3.421 3.141 3.418-3.141z"></path>
</symbol>
<symbol id="icon-twitter" viewBox="0 0 26 28">
<title>twitter</title>
<path d="M25.312 6.375c-0.688 1-1.547 1.891-2.531 2.609 0.016 0.219 0.016 0.438 0.016 0.656 0 6.672-5.078 14.359-14.359 14.359-2.859 0-5.516-0.828-7.75-2.266 0.406 0.047 0.797 0.063 1.219 0.063 2.359 0 4.531-0.797 6.266-2.156-2.219-0.047-4.078-1.5-4.719-3.5 0.313 0.047 0.625 0.078 0.953 0.078 0.453 0 0.906-0.063 1.328-0.172-2.312-0.469-4.047-2.5-4.047-4.953v-0.063c0.672 0.375 1.453 0.609 2.281 0.641-1.359-0.906-2.25-2.453-2.25-4.203 0-0.938 0.25-1.797 0.688-2.547 2.484 3.062 6.219 5.063 10.406 5.281-0.078-0.375-0.125-0.766-0.125-1.156 0-2.781 2.25-5.047 5.047-5.047 1.453 0 2.766 0.609 3.687 1.594 1.141-0.219 2.234-0.641 3.203-1.219-0.375 1.172-1.172 2.156-2.219 2.781 1.016-0.109 2-0.391 2.906-0.781z"></path>
</symbol>
<symbol id="icon-search" viewBox="0 0 32 32">
<title>search</title>
<path d="M31.008 27.231l-7.58-6.447c-0.784-0.705-1.622-1.029-2.299-0.998 1.789-2.096 2.87-4.815 2.87-7.787 0-6.627-5.373-12-12-12s-12 5.373-12 12 5.373 12 12 12c2.972 0 5.691-1.081 7.787-2.87-0.031 0.677 0.293 1.515 0.998 2.299l6.447 7.58c1.104 1.226 2.907 1.33 4.007 0.23s0.997-2.903-0.23-4.007zM12 20c-4.418 0-8-3.582-8-8s3.582-8 8-8 8 3.582 8 8-3.582 8-8 8z"></path>
</symbol>
<symbol id="icon-facebook" viewBox="0 0 32 32">
<title>facebook</title>
<path d="M19 6h5v-6h-5c-3.86 0-7 3.14-7 7v3h-4v6h4v16h6v-16h5l1-6h-6v-3c0-0.542 0.458-1 1-1z"></path>
</symbol>
<symbol id="icon-instagram" viewBox="0 0 32 32">
<title>instagram</title>
<path d="M16 2.881c4.275 0 4.781 0.019 6.462 0.094 1.563 0.069 2.406 0.331 2.969 0.55 0.744 0.288 1.281 0.638 1.837 1.194 0.563 0.563 0.906 1.094 1.2 1.838 0.219 0.563 0.481 1.412 0.55 2.969 0.075 1.688 0.094 2.194 0.094 6.463s-0.019 4.781-0.094 6.463c-0.069 1.563-0.331 2.406-0.55 2.969-0.288 0.744-0.637 1.281-1.194 1.837-0.563 0.563-1.094 0.906-1.837 1.2-0.563 0.219-1.413 0.481-2.969 0.55-1.688 0.075-2.194 0.094-6.463 0.094s-4.781-0.019-6.463-0.094c-1.563-0.069-2.406-0.331-2.969-0.55-0.744-0.288-1.281-0.637-1.838-1.194-0.563-0.563-0.906-1.094-1.2-1.837-0.219-0.563-0.481-1.413-0.55-2.969-0.075-1.688-0.094-2.194-0.094-6.463s0.019-4.781 0.094-6.463c0.069-1.563 0.331-2.406 0.55-2.969 0.288-0.744 0.638-1.281 1.194-1.838 0.563-0.563 1.094-0.906 1.838-1.2 0.563-0.219 1.412-0.481 2.969-0.55 1.681-0.075 2.188-0.094 6.463-0.094zM16 0c-4.344 0-4.887 0.019-6.594 0.094-1.7 0.075-2.869 0.35-3.881 0.744-1.056 0.412-1.95 0.956-2.837 1.85-0.894 0.888-1.438 1.781-1.85 2.831-0.394 1.019-0.669 2.181-0.744 3.881-0.075 1.713-0.094 2.256-0.094 6.6s0.019 4.887 0.094 6.594c0.075 1.7 0.35 2.869 0.744 3.881 0.413 1.056 0.956 1.95 1.85 2.837 0.887 0.887 1.781 1.438 2.831 1.844 1.019 0.394 2.181 0.669 3.881 0.744 1.706 0.075 2.25 0.094 6.594 0.094s4.888-0.019 6.594-0.094c1.7-0.075 2.869-0.35 3.881-0.744 1.050-0.406 1.944-0.956 2.831-1.844s1.438-1.781 1.844-2.831c0.394-1.019 0.669-2.181 0.744-3.881 0.075-1.706 0.094-2.25 0.094-6.594s-0.019-4.887-0.094-6.594c-0.075-1.7-0.35-2.869-0.744-3.881-0.394-1.063-0.938-1.956-1.831-2.844-0.887-0.887-1.781-1.438-2.831-1.844-1.019-0.394-2.181-0.669-3.881-0.744-1.712-0.081-2.256-0.1-6.6-0.1v0z"></path>
<path d="M16 7.781c-4.537 0-8.219 3.681-8.219 8.219s3.681 8.219 8.219 8.219 8.219-3.681 8.219-8.219c0-4.537-3.681-8.219-8.219-8.219zM16 21.331c-2.944 0-5.331-2.387-5.331-5.331s2.387-5.331 5.331-5.331c2.944 0 5.331 2.387 5.331 5.331s-2.387 5.331-5.331 5.331z"></path>
<path d="M26.462 7.456c0 1.060-0.859 1.919-1.919 1.919s-1.919-0.859-1.919-1.919c0-1.060 0.859-1.919 1.919-1.919s1.919 0.859 1.919 1.919z"></path>
</symbol>

<symbol id="icon-pencil" viewBox="0 0 32 32">
<title>pencil</title>
<path d="M27 0c2.761 0 5 2.239 5 5 0 1.126-0.372 2.164-1 3l-2 2-7-7 2-2c0.836-0.628 1.874-1 3-1zM2 23l-2 9 9-2 18.5-18.5-7-7-18.5 18.5zM22.362 11.362l-14 14-1.724-1.724 14-14 1.724 1.724z"></path>
</symbol>

<symbol id="icon-user" viewBox="0 0 32 32">
<title>user</title>
<path d="M18 22.082v-1.649c2.203-1.241 4-4.337 4-7.432 0-4.971 0-9-6-9s-6 4.029-6 9c0 3.096 1.797 6.191 4 7.432v1.649c-6.784 0.555-12 3.888-12 7.918h28c0-4.030-5.216-7.364-12-7.918z"></path>
</symbol>

<symbol id="icon-sad" viewBox="0 0 32 32">
<title>sad-face</title>
<path d="M16.5 29c6.904 0 12.5-5.596 12.5-12.5s-5.596-12.5-12.5-12.5c-6.904 0-12.5 5.596-12.5 12.5s5.596 12.5 12.5 12.5zM19.622 10.967l3.316 2.237-0.559 0.829-3.316-2.237 0.559-0.829zM10.062 13.204l3.316-2.237 0.559 0.829-3.316 2.237-0.559-0.829zM16.497 22c-2.997 0-4.497 1-4.497 1s1-3 4.5-3c3.5 0 4.5 3 4.5 3s-1.506-1-4.503-1z"></path>
</symbol>

<symbol id="icon-happy" viewBox="0 0 32 32">
<title>happy</title>
<path d="M16 0c-8.837 0-16 7.163-16 16s7.163 16 16 16c8.837 0 16-7.163 16-16s-7.163-16-16-16zM22 8c1.105 0 2 1.343 2 3s-0.895 3-2 3-2-1.343-2-3 0.895-3 2-3zM11 9.752c1.864 0 3.188 0.698 3.188 1.79 0 0.231 0.119 1.344-0.005 1.55-0.463-0.768-1.713-1.318-3.182-1.318s-2.719 0.55-3.182 1.318c-0.124-0.206-0.005-1.319-0.005-1.55 0-1.092 1.324-1.79 3.187-1.79zM15.636 26c-3.726 0-6.996-2.009-8.84-5.030 2.2 1.721 6.079 2.057 10.165 1.249 4.383-0.866 7.785-2.861 9.014-5.519-0.677 5.249-5.047 9.299-10.339 9.299z"></path>
</symbol>

<symbol id="icon-automobile" viewBox="0 0 512 512">
<title>automobile</title>
<path style="fill:#FFB47D;" d="M489.798,239.613c-16.627-10.241-70.258-23.335-145.52-23.335l-39.756-46.38
	c-8.385-9.782-20.627-15.413-33.511-15.413H152.008c-12.644,0-24.87,4.523-34.47,12.751L70.624,207.45l-50.039,7.148
	c-7.106,1.015-12.889,6.231-14.63,13.195l-5.95,23.794l132.415,61.792h370.755v-49.903
	C503.173,253.717,498.107,244.732,489.798,239.613z"/>
<path style="fill:#FF9164;" d="M503.173,269.241c0-17.655-26.482-35.31-150.067-35.31H8.831c-4.875,0-8.827,3.953-8.827,8.827
	v52.965l167.725,26.482h335.445V269.241z"/>
<path style="fill:#FF7D5A;" d="M503.173,304.551H89.244l-78.5-17.443c-4.715-1.035-9.474,1.935-10.535,6.702
	c-1.052,4.759,1.949,9.474,6.707,10.53l79.447,17.655c0.629,0.142,1.267,0.211,1.913,0.211h414.894c4.879,0,8.828-3.953,8.828-8.827
	C511.999,308.504,508.052,304.551,503.173,304.551z"/>
<circle style="fill:#EDEDEE;" cx="423.72" cy="304.549" r="44.137"/>
<path style="fill:#504B5A;" d="M423.725,357.516c-29.207,0-52.965-23.758-52.965-52.965c0-29.207,23.758-52.965,52.965-52.965
	s52.965,23.758,52.965,52.965C476.69,333.758,452.932,357.516,423.725,357.516z M423.725,269.241
	c-19.473,0-35.31,15.837-35.31,35.31c0,19.473,15.837,35.31,35.31,35.31s35.31-15.836,35.31-35.31
	C459.035,285.078,443.199,269.241,423.725,269.241z"/>
<circle style="fill:#DCDBDE;" cx="423.72" cy="304.549" r="17.655"/>
<circle style="fill:#EDEDEE;" cx="88.275" cy="304.549" r="44.137"/>
<path style="fill:#504B5A;" d="M88.279,357.516c-29.207,0-52.965-23.758-52.965-52.965c0-29.207,23.758-52.965,52.965-52.965
	s52.965,23.758,52.965,52.965C141.243,333.758,117.485,357.516,88.279,357.516z M88.279,269.241c-19.473,0-35.31,15.837-35.31,35.31
	c0,19.473,15.837,35.31,35.31,35.31s35.31-15.836,35.31-35.31C123.589,285.078,107.752,269.241,88.279,269.241z"/>
<circle style="fill:#DCDBDE;" cx="88.275" cy="304.549" r="17.655"/>
<g>
	<path style="fill:#FF7D5A;" d="M353.105,286.896H167.728c-4.875,0-8.827-3.953-8.827-8.827l0,0c0-4.875,3.953-8.827,8.827-8.827
		h185.377c4.875,0,8.827,3.952,8.827,8.827l0,0C361.933,282.945,357.98,286.896,353.105,286.896z"/>
	<path style="fill:#FF7D5A;" d="M503.173,286.896h-8.827c-4.875,0-8.828-3.953-8.828-8.827l0,0c0-4.875,3.953-8.827,8.828-8.827
		h8.827c4.875,0,8.827,3.952,8.827,8.827l0,0C512,282.945,508.048,286.896,503.173,286.896z"/>
</g>
<path style="fill:#FF9164;" d="M70.624,207.449l46.914-40.214c9.6-8.228,21.826-12.751,34.47-12.751h119.003
	c12.885,0,25.125,5.63,33.511,15.413l39.756,46.38H135.276c-7.78,0-15.546-0.643-23.221-1.922L70.624,207.449z"/>
<path style="fill:#625D6B;" d="M261.294,169.664c-3.354-4.025-8.323-6.352-13.563-6.352h-81.524c-4.682,0-9.173,1.86-12.483,5.171
	l-26.482,26.482c-2.341,2.341-3.657,5.516-3.657,8.827l0,0c0,6.894,5.589,12.484,12.484,12.484h154.647
	c3.742,0,5.786-4.365,3.391-7.24L261.294,169.664z"/>
<polygon style="fill:#504B5A;" points="185.381,216.276 158.898,216.276 176.553,163.312 194.208,163.312 "/>
<path style="fill:#EDEDEE;" d="M493.697,242.759h-8.181c-4.875,0-8.827,3.952-8.827,8.827s3.953,8.827,8.827,8.827h17.261
	C502.011,253.548,498.814,247.337,493.697,242.759z"/>
<path style="fill:#625D6B;" d="M304.522,169.897c-2.115-2.468-4.48-4.669-7.036-6.585H283.08c-3.742,0-5.786,4.364-3.391,7.24
	l32.813,39.374c3.354,4.025,8.323,6.352,13.562,6.352h18.213L304.522,169.897z"/>
<path style="fill:#FF6464;" d="M0.004,242.759v8.827h17.655c4.875,0,8.827-3.952,8.827-8.827s-3.953-8.827-8.827-8.827H8.831
	C3.955,233.931,0.004,237.884,0.004,242.759z"/>
</symbol>

<symbol id="icon-headphones" viewBox="0 0 110 110">
<title>headphones</title>
<path d="m19.9010105 76.4447556c-3.2061939-5.849762-4.9010105-12.4892655-4.9010105-19.200634 0-22.0562325 17.9439659-40.0001984 40-40.0001984s40 17.943964 40 40.0001984c0 6.396904-1.4653168 12.5095177-4.3550644 18.1686974l-2.8968887-1.4794159c2.6536942-5.1966171 3.9993057-10.8117218 3.9993057-16.6892815 0-20.2627487-16.4848022-36.747551-36.7473526-36.747551s-36.7473526 16.4848003-36.7473526 36.747551c0 6.1666145 1.5562439 12.2653313 4.500782 17.637043z" fill="#64798a"/><path d="m90.6191025 70.8451004-2.9393234-1.7220383v-1.1587143c0-.4916382-.1653137-.9690704-.4693832-1.3554916l-1.20784-1.5348663-10.1276932 28.109108.6609039.0192184c.6718292.0195236 1.3154755-.2702255 1.7462158-.7861023l.6453705-.7729416 3.4043579.6628189c1.2457275.2425613 2.4863892-.4415588 2.946106-1.6245041l6.4602127-16.6232452c.4665527-1.2005463-.0076142-2.5622101-1.118927-3.2132416z" fill="#e6e9ef"/><path d="m86.0371094 64.6636353c-.8343048-.9542465-2.8733673-2.5325165-7.1051025-2.2580376-.5288696.0342941-.9906158.3792877-1.178894.8746758l-9.6645889 25.4338837c-.1672363.4402008-.0958099.9334106.1902008 1.3074875.8925323 1.1673126 3.1206284 3.5248032 6.5810928 3.5632553.5744476.0063705 1.0951767-.3417587 1.2987289-.8789291l10.111557-26.6834564c.1751327-.4619981.0922699-.9869692-.2329941-1.3588792z" fill="#64798a"/><path d="m19.3807964 70.8451004 2.9393272-1.7220383v-1.1587143c0-.4916382.1653137-.9690704.4693851-1.3554916l1.2078323-1.5348663 10.1276932 28.109108-.6609001.0192184c-.6718292.0195236-1.3154793-.2702255-1.7462158-.7861023l-.6453705-.7729416-3.4043617.6628189c-1.2457199.2425613-2.4863834-.4415588-2.946106-1.6245041l-6.4602126-16.6232452c-.4665508-1.2005463.0076142-2.5622101 1.1189289-3.2132416z" fill="#e6e9ef"/><path d="m23.9627914 64.6636353c.8343086-.9542465 2.8733635-2.5325165 7.1051025-2.2580376.5288715.0342941.9906158.3792877 1.1788979.8746758l9.6645813 25.4338837c.1672363.4402008.0958099.9334106-.1902008 1.3074875-.8925323 1.1673126-3.1206245 3.5248032-6.5810852 3.5632553-.5744514.0063705-1.0951805-.3417587-1.2987366-.8789291l-10.111557-26.6834564c-.175127-.4619981-.0922679-.9869692.2329979-1.3588792z" fill="#64798a"/><path d="m55 16.4150181c-12.1479836 0-23.0717163 5.3349609-30.5573254 13.7826557l3.4763947 3.4763947c6.5898647-7.5616875 16.2865429-12.3486043 27.0809307-12.3486043s20.4910889 4.7869167 27.0809555 12.3486042l3.4763718-3.4763947c-7.4855881-8.4476947-18.4093476-13.7826556-30.5573273-13.7826556z" fill="#e56353"/>
</symbol>

<symbol id="icon-smartphone" viewBox="0 0 512 512" >
<title>smartphone</title>
<path style="fill:#707384;" d="M361.931,0H150.069c-14.626,0-26.483,11.857-26.483,26.483v459.034
	c0,14.626,11.857,26.483,26.483,26.483h211.862c14.626,0,26.483-11.857,26.483-26.483V26.483C388.414,11.857,376.557,0,361.931,0z
	 M220.69,35.31c0-4.875,3.953-8.828,8.828-8.828h52.966c4.875,0,8.828,3.953,8.828,8.828l0,0c0,4.875-3.953,8.828-8.828,8.828
	h-52.966C224.642,44.138,220.69,40.185,220.69,35.31L220.69,35.31z M194.207,26.483c4.875,0,8.828,3.953,8.828,8.828
	s-3.953,8.828-8.828,8.828s-8.828-3.953-8.828-8.828S189.332,26.483,194.207,26.483z M256,494.345
	c-9.751,0-17.655-7.905-17.655-17.655c0-9.751,7.904-17.655,17.655-17.655c9.751,0,17.655,7.904,17.655,17.655
	C273.655,486.44,265.751,494.345,256,494.345z M370.759,335.448v105.931H141.241V335.448V70.621h229.517V335.448z"/>
<path style="fill:#63AFDB;" d="M141.241,335.448h70.621c0-4.875,3.953-8.828,8.828-8.828s8.828,3.953,8.828,8.828h17.655
	c0-4.875,3.953-8.828,8.828-8.828s8.828,3.953,8.828,8.828h17.655c0-4.875,3.953-8.828,8.828-8.828s8.828,3.953,8.828,8.828h70.621
	V70.621H141.241V335.448z M300.138,114.759c0-4.875,3.953-8.828,8.828-8.828h35.31c4.875,0,8.828,3.953,8.828,8.828v35.31
	c0,4.875-3.953,8.828-8.828,8.828h-35.31c-4.875,0-8.828-3.953-8.828-8.828V114.759z M300.138,185.379
	c0-4.875,3.953-8.828,8.828-8.828h35.31c4.875,0,8.828,3.953,8.828,8.828v35.31c0,4.875-3.953,8.828-8.828,8.828h-35.31
	c-4.875,0-8.828-3.953-8.828-8.828V185.379z M300.138,256c0-4.875,3.953-8.828,8.828-8.828h35.31c4.875,0,8.828,3.953,8.828,8.828
	v35.31c0,4.875-3.953,8.828-8.828,8.828h-35.31c-4.875,0-8.828-3.953-8.828-8.828V256z M229.517,114.759
	c0-4.875,3.953-8.828,8.828-8.828h35.31c4.875,0,8.828,3.953,8.828,8.828v35.31c0,4.875-3.953,8.828-8.828,8.828h-35.31
	c-4.875,0-8.828-3.953-8.828-8.828V114.759z M229.517,185.379c0-4.875,3.953-8.828,8.828-8.828h35.31
	c4.875,0,8.828,3.953,8.828,8.828v35.31c0,4.875-3.953,8.828-8.828,8.828h-35.31c-4.875,0-8.828-3.953-8.828-8.828V185.379z
	 M229.517,256c0-4.875,3.953-8.828,8.828-8.828h35.31c4.875,0,8.828,3.953,8.828,8.828v35.31c0,4.875-3.953,8.828-8.828,8.828
	h-35.31c-4.875,0-8.828-3.953-8.828-8.828V256z M158.897,114.759c0-4.875,3.953-8.828,8.828-8.828h35.31
	c4.875,0,8.828,3.953,8.828,8.828v35.31c0,4.875-3.953,8.828-8.828,8.828h-35.31c-4.875,0-8.828-3.953-8.828-8.828V114.759z
	 M158.897,185.379c0-4.875,3.953-8.828,8.828-8.828h35.31c4.875,0,8.828,3.953,8.828,8.828v35.31c0,4.875-3.953,8.828-8.828,8.828
	h-35.31c-4.875,0-8.828-3.953-8.828-8.828V185.379z M158.897,256c0-4.875,3.953-8.828,8.828-8.828h35.31
	c4.875,0,8.828,3.953,8.828,8.828v35.31c0,4.875-3.953,8.828-8.828,8.828h-35.31c-4.875,0-8.828-3.953-8.828-8.828V256z"/>
<path style="fill:#468CBE;" d="M291.31,344.276c-4.875,0-8.828-3.953-8.828-8.828h-17.655c0,4.875-3.953,8.828-8.828,8.828
	s-8.828-3.953-8.828-8.828h-17.655c0,4.875-3.953,8.828-8.828,8.828s-8.828-3.953-8.828-8.828h-70.621v105.931h229.517V335.448
	h-70.621C300.138,340.323,296.185,344.276,291.31,344.276z M211.862,406.069c0,4.875-3.953,8.828-8.828,8.828h-35.31
	c-4.875,0-8.828-3.953-8.828-8.828v-35.31c0-4.875,3.953-8.828,8.828-8.828h35.31c4.875,0,8.828,3.953,8.828,8.828V406.069z
	 M282.483,406.069c0,4.875-3.953,8.828-8.828,8.828h-35.31c-4.875,0-8.828-3.953-8.828-8.828v-35.31
	c0-4.875,3.953-8.828,8.828-8.828h35.31c4.875,0,8.828,3.953,8.828,8.828V406.069z M308.966,361.931h35.31
	c4.875,0,8.828,3.953,8.828,8.828v35.31c0,4.875-3.953,8.828-8.828,8.828h-35.31c-4.875,0-8.828-3.953-8.828-8.828v-35.31
	C300.138,365.884,304.09,361.931,308.966,361.931z"/>
<g>
	<path style="fill:#464655;" d="M229.517,44.138h52.966c4.875,0,8.828-3.953,8.828-8.828l0,0c0-4.875-3.953-8.828-8.828-8.828
		h-52.966c-4.875,0-8.828,3.953-8.828,8.828l0,0C220.69,40.185,224.642,44.138,229.517,44.138z"/>
	<circle style="fill:#464655;" cx="194.207" cy="35.31" r="8.828"/>
	<circle style="fill:#464655;" cx="256" cy="476.69" r="17.655"/>
</g>
<path style="fill:#63AFDB;" d="M273.655,361.931h-35.31c-4.875,0-8.828,3.953-8.828,8.828v35.31c0,4.875,3.953,8.828,8.828,8.828
	h35.31c4.875,0,8.828-3.953,8.828-8.828v-35.31C282.483,365.884,278.53,361.931,273.655,361.931z M256,406.069
	c-9.751,0-17.655-7.905-17.655-17.655c0-9.751,7.904-17.655,17.655-17.655c9.751,0,17.655,7.904,17.655,17.655
	C273.655,398.164,265.751,406.069,256,406.069z"/>
<path style="fill:#FF6469;" d="M300.138,406.069c0,4.875,3.953,8.828,8.828,8.828h35.31c4.875,0,8.828-3.953,8.828-8.828v-35.31
	c0-4.875-3.953-8.828-8.828-8.828h-35.31c-4.875,0-8.828,3.953-8.828,8.828V406.069z"/>
<path style="fill:#00DCCD;" d="M203.034,361.931h-35.31c-4.875,0-8.828,3.953-8.828,8.828v35.31c0,4.875,3.953,8.828,8.828,8.828
	h35.31c4.875,0,8.828-3.953,8.828-8.828v-35.31C211.862,365.884,207.91,361.931,203.034,361.931z"/>
<path style="fill:#FFDC69;" d="M238.345,300.138h35.31c4.875,0,8.828-3.953,8.828-8.828V256c0-4.875-3.953-8.828-8.828-8.828h-35.31
	c-4.875,0-8.828,3.953-8.828,8.828v35.31C229.517,296.185,233.47,300.138,238.345,300.138z"/>
<path style="fill:#FFFFFF;" d="M308.966,300.138h35.31c4.875,0,8.828-3.953,8.828-8.828V256c0-4.875-3.953-8.828-8.828-8.828h-35.31
	c-4.875,0-8.828,3.953-8.828,8.828v35.31C300.138,296.185,304.09,300.138,308.966,300.138z M308.966,273.655
	c0-4.875,3.953-8.828,8.828-8.828h17.655c4.875,0,8.828,3.953,8.828,8.828l0,0c0,4.875-3.953,8.828-8.828,8.828h-17.655
	C312.918,282.483,308.966,278.53,308.966,273.655L308.966,273.655z"/>
<path style="fill:#468CBE;" d="M167.724,300.138h35.31c4.875,0,8.828-3.953,8.828-8.828V256c0-4.875-3.953-8.828-8.828-8.828h-35.31
	c-4.875,0-8.828,3.953-8.828,8.828v35.31C158.897,296.185,162.849,300.138,167.724,300.138z M167.724,273.655
	c0-4.875,3.953-8.828,8.828-8.828h17.655c4.875,0,8.828,3.953,8.828,8.828l0,0c0,4.875-3.953,8.828-8.828,8.828h-17.655
	C171.677,282.483,167.724,278.53,167.724,273.655L167.724,273.655z"/>
<path style="fill:#464655;" d="M238.345,229.517h35.31c4.875,0,8.828-3.953,8.828-8.828v-35.31c0-4.875-3.953-8.828-8.828-8.828
	h-35.31c-4.875,0-8.828,3.953-8.828,8.828v35.31C229.517,225.565,233.47,229.517,238.345,229.517z M238.345,203.034
	c0-4.875,3.953-8.828,8.828-8.828h17.655c4.875,0,8.828,3.953,8.828,8.828l0,0c0,4.875-3.953,8.828-8.828,8.828h-17.655
	C242.297,211.862,238.345,207.91,238.345,203.034L238.345,203.034z"/>
<path style="fill:#FFA055;" d="M308.966,229.517h35.31c4.875,0,8.828-3.953,8.828-8.828v-35.31c0-4.875-3.953-8.828-8.828-8.828
	h-35.31c-4.875,0-8.828,3.953-8.828,8.828v35.31C300.138,225.565,304.09,229.517,308.966,229.517z"/>
<path style="fill:#A0D778;" d="M167.724,229.517h35.31c4.875,0,8.828-3.953,8.828-8.828v-35.31c0-4.875-3.953-8.828-8.828-8.828
	h-35.31c-4.875,0-8.828,3.953-8.828,8.828v35.31C158.897,225.565,162.849,229.517,167.724,229.517z M185.379,185.379
	c9.751,0,17.655,7.904,17.655,17.655c0,9.75-7.904,17.655-17.655,17.655c-9.751,0-17.655-7.905-17.655-17.655
	C167.724,193.283,175.628,185.379,185.379,185.379z"/>
<path style="fill:#FF6469;" d="M238.345,158.897h35.31c4.875,0,8.828-3.953,8.828-8.828v-35.31c0-4.875-3.953-8.828-8.828-8.828
	h-35.31c-4.875,0-8.828,3.953-8.828,8.828v35.31C229.517,154.944,233.47,158.897,238.345,158.897z"/>
<path style="fill:#00DCCD;" d="M308.966,158.897h35.31c4.875,0,8.828-3.953,8.828-8.828v-35.31c0-4.875-3.953-8.828-8.828-8.828
	h-35.31c-4.875,0-8.828,3.953-8.828,8.828v35.31C300.138,154.944,304.09,158.897,308.966,158.897z M326.621,114.759
	c9.751,0,17.655,7.904,17.655,17.655c0,9.75-7.904,17.655-17.655,17.655c-9.751,0-17.655-7.905-17.655-17.655
	C308.966,122.663,316.87,114.759,326.621,114.759z"/>
<g>
	<path style="fill:#FFDC69;" d="M167.724,158.897h35.31c4.875,0,8.828-3.953,8.828-8.828v-35.31c0-4.875-3.953-8.828-8.828-8.828
		h-35.31c-4.875,0-8.828,3.953-8.828,8.828v35.31C158.897,154.944,162.849,158.897,167.724,158.897z"/>
	<circle style="fill:#FFDC69;" cx="185.379" cy="203.034" r="17.655"/>
	<circle style="fill:#FFDC69;" cx="256" cy="388.414" r="17.655"/>
</g>
<circle style="fill:#FF6469;" cx="326.621" cy="132.414" r="17.655"/>
<path style="fill:#468CBE;" d="M247.172,211.862h17.655c4.875,0,8.828-3.953,8.828-8.828l0,0c0-4.875-3.953-8.828-8.828-8.828
	h-17.655c-4.875,0-8.828,3.953-8.828,8.828l0,0C238.345,207.91,242.297,211.862,247.172,211.862z"/>
<path style="fill:#FF6469;" d="M317.793,282.483h17.655c4.875,0,8.828-3.953,8.828-8.828l0,0c0-4.875-3.953-8.828-8.828-8.828
	h-17.655c-4.875,0-8.828,3.953-8.828,8.828l0,0C308.966,278.53,312.918,282.483,317.793,282.483z"/>
<path style="fill:#FFFFFF;" d="M176.552,282.483h17.655c4.875,0,8.828-3.953,8.828-8.828l0,0c0-4.875-3.953-8.828-8.828-8.828
	h-17.655c-4.875,0-8.828,3.953-8.828,8.828l0,0C167.724,278.53,171.677,282.483,176.552,282.483z"/>
<circle style="fill:#464655;" cx="220.69" cy="335.448" r="8.828"/>
<g>
	<circle style="fill:#FFFFFF;" cx="256" cy="335.448" r="8.828"/>
	<circle style="fill:#FFFFFF;" cx="291.31" cy="335.448" r="8.828"/>
</g>
</symbol>

<symbol id="icon-laptop" viewBox="0 0 512 512">
<title>laptop</title>
<path style="fill:#38454F;" d="M185.379,384v17.655h141.241V384H476.69V101.517c0-9.754-7.901-17.655-17.655-17.655H52.966
		c-9.754,0-17.655,7.901-17.655,17.655V384H185.379z"/>
	<path style="fill:#B0B6BB;" d="M326.621,384v17.655H185.379V384H0v26.483c0,9.754,7.901,17.655,17.655,17.655h476.69
		c9.754,0,17.655-7.901,17.655-17.655V384H326.621z"/>
	<polygon style="fill:#546A79;" points="52.966,366.345 459.034,366.345 459.034,101.517 52.966,101.517 	"/>
	<g>
		<path style="fill:#25AE88;" d="M291.31,348.69c-4.882,0-8.828-3.955-8.828-8.828v-26.483c0-4.873,3.946-8.828,8.828-8.828
			c4.882,0,8.828,3.955,8.828,8.828v26.483C300.138,344.735,296.192,348.69,291.31,348.69"/>
		<path style="fill:#25AE88;" d="M326.621,348.69c-4.882,0-8.828-3.955-8.828-8.828v-61.793c0-4.873,3.946-8.828,8.828-8.828
			c4.882,0,8.828,3.955,8.828,8.828v61.793C335.448,344.735,331.502,348.69,326.621,348.69"/>
		<path style="fill:#25AE88;" d="M361.931,348.69c-4.882,0-8.828-3.955-8.828-8.828v-44.138c0-4.873,3.946-8.828,8.828-8.828
			c4.882,0,8.828,3.955,8.828,8.828v44.138C370.759,344.735,366.813,348.69,361.931,348.69"/>
		<path style="fill:#25AE88;" d="M397.241,348.69c-4.882,0-8.828-3.955-8.828-8.828V233.931c0-4.873,3.946-8.828,8.828-8.828
			c4.882,0,8.828,3.955,8.828,8.828v105.931C406.069,344.735,402.123,348.69,397.241,348.69"/>
		<path style="fill:#25AE88;" d="M432.552,348.69c-4.882,0-8.828-3.955-8.828-8.828v-70.621c0-4.873,3.946-8.828,8.828-8.828
			c4.882,0,8.828,3.955,8.828,8.828v70.621C441.379,344.735,437.433,348.69,432.552,348.69"/>
	</g>
	<path style="fill:#DD691D;" d="M256,220.69c0,51.191-41.498,92.69-92.69,92.69s-92.69-41.498-92.69-92.69S112.119,128,163.31,128
		S256,169.498,256,220.69"/>
	<path style="fill:#ECBA16;" d="M159.017,128.097c-0.044,0.044-0.071,0.079-0.124,0.124v96.556c0,0.185,0.15,0.327,0.327,0.327
		h96.556c0.044-0.044,0.079-0.071,0.124-0.124C258.363,170.399,213.598,125.634,159.017,128.097"/>
	<g>
		<path style="fill:#DD691D;" d="M388.414,180.966h-70.621c-4.882,0-8.828-3.955-8.828-8.828c0-4.873,3.946-8.828,8.828-8.828
			h70.621c4.882,0,8.828,3.955,8.828,8.828C397.241,177.011,393.295,180.966,388.414,180.966"/>
		<path style="fill:#DD691D;" d="M432.552,180.966c-2.295,0-4.599-0.971-6.268-2.56c-0.353-0.441-0.794-0.883-1.059-1.324
			c-0.353-0.53-0.618-1.059-0.794-1.589c-0.265-0.53-0.441-1.059-0.53-1.589c-0.088-0.618-0.177-1.236-0.177-1.766
			c0-1.148,0.265-2.295,0.706-3.354c0.441-1.059,1.059-2.03,1.854-2.913c3.266-3.266,9.181-3.266,12.535,0
			c0.794,0.883,1.412,1.766,1.854,2.913c0.441,1.059,0.706,2.207,0.706,3.354c0,2.383-0.971,4.59-2.56,6.268
			C437.142,179.994,434.847,180.966,432.552,180.966"/>
		<path style="fill:#DD691D;" d="M432.552,136.828h-26.483c-4.882,0-8.828-3.955-8.828-8.828c0-4.873,3.946-8.828,8.828-8.828
			h26.483c4.882,0,8.828,3.955,8.828,8.828C441.379,132.873,437.433,136.828,432.552,136.828"/>
		<path style="fill:#DD691D;" d="M335.448,136.828h-17.655c-4.882,0-8.828-3.955-8.828-8.828c0-4.873,3.946-8.828,8.828-8.828
			h17.655c4.882,0,8.828,3.955,8.828,8.828C344.276,132.873,340.33,136.828,335.448,136.828"/>
		<path style="fill:#DD691D;" d="M370.759,136.828c-1.148,0-2.295-0.265-3.354-0.706c-1.148-0.441-2.03-1.059-2.913-1.854
			c-0.794-0.883-1.412-1.854-1.854-2.913c-0.53-1.059-0.706-2.207-0.706-3.354c0-1.148,0.177-2.295,0.706-3.354
			c0.441-1.148,1.059-2.03,1.854-2.913c0.883-0.794,1.766-1.412,2.913-1.854c3.266-1.324,7.15-0.618,9.622,1.854
			c0.794,0.883,1.412,1.766,1.854,2.913c0.441,1.059,0.706,2.207,0.706,3.354c0,1.148-0.265,2.295-0.706,3.354
			c-0.441,1.059-1.059,2.03-1.854,2.913C375.349,135.857,373.054,136.828,370.759,136.828"/>
</symbol>


</defs>
</svg>
