<svg aria-hidden="true" style="position: absolute; width: 0; height: 0; overflow: hidden;" version="1.1" xmlns="http://www.w3.org/2000/svg" xmlns:xlink="http://www.w3.org/1999/xlink">
<defs>
<symbol id="icon-up" viewBox="0 0 20 20">
<title>up</title>
<path d="M6.582 12.141c-0.271 0.268-0.709 0.268-0.978 0s-0.272-0.701 0-0.969l3.908-3.83c0.27-0.268 0.707-0.268 0.979 0l3.908 3.83c0.27 0.267 0.27 0.701 0 0.969s-0.709 0.268-0.979 0l-3.42-3.141-3.418 3.141z"></path>
</symbol>
<symbol id="icon-down" viewBox="0 0 20 20">
<title>down</title>
<path d="M13.418 7.859c0.271-0.268 0.709-0.268 0.978 0s0.272 0.701 0 0.969l-3.908 3.83c-0.27 0.268-0.707 0.268-0.979 0l-3.908-3.83c-0.27-0.267-0.27-0.701 0-0.969s0.709-0.268 0.978 0l3.421 3.141 3.418-3.141z"></path>
</symbol>
<symbol id="icon-twitter" viewBox="0 0 26 28">
<title>twitter</title>
<path d="M25.312 6.375c-0.688 1-1.547 1.891-2.531 2.609 0.016 0.219 0.016 0.438 0.016 0.656 0 6.672-5.078 14.359-14.359 14.359-2.859 0-5.516-0.828-7.75-2.266 0.406 0.047 0.797 0.063 1.219 0.063 2.359 0 4.531-0.797 6.266-2.156-2.219-0.047-4.078-1.5-4.719-3.5 0.313 0.047 0.625 0.078 0.953 0.078 0.453 0 0.906-0.063 1.328-0.172-2.312-0.469-4.047-2.5-4.047-4.953v-0.063c0.672 0.375 1.453 0.609 2.281 0.641-1.359-0.906-2.25-2.453-2.25-4.203 0-0.938 0.25-1.797 0.688-2.547 2.484 3.062 6.219 5.063 10.406 5.281-0.078-0.375-0.125-0.766-0.125-1.156 0-2.781 2.25-5.047 5.047-5.047 1.453 0 2.766 0.609 3.687 1.594 1.141-0.219 2.234-0.641 3.203-1.219-0.375 1.172-1.172 2.156-2.219 2.781 1.016-0.109 2-0.391 2.906-0.781z"></path>
</symbol>
<symbol id="icon-search" viewBox="0 0 32 32">
<title>search</title>
<path d="M31.008 27.231l-7.58-6.447c-0.784-0.705-1.622-1.029-2.299-0.998 1.789-2.096 2.87-4.815 2.87-7.787 0-6.627-5.373-12-12-12s-12 5.373-12 12 5.373 12 12 12c2.972 0 5.691-1.081 7.787-2.87-0.031 0.677 0.293 1.515 0.998 2.299l6.447 7.58c1.104 1.226 2.907 1.33 4.007 0.23s0.997-2.903-0.23-4.007zM12 20c-4.418 0-8-3.582-8-8s3.582-8 8-8 8 3.582 8 8-3.582 8-8 8z"></path>
</symbol>
<symbol id="icon-facebook" viewBox="0 0 32 32">
<title>facebook</title>
<path d="M19 6h5v-6h-5c-3.86 0-7 3.14-7 7v3h-4v6h4v16h6v-16h5l1-6h-6v-3c0-0.542 0.458-1 1-1z"></path>
</symbol>
<symbol id="icon-instagram" viewBox="0 0 32 32">
<title>instagram</title>
<path d="M16 2.881c4.275 0 4.781 0.019 6.462 0.094 1.563 0.069 2.406 0.331 2.969 0.55 0.744 0.288 1.281 0.638 1.837 1.194 0.563 0.563 0.906 1.094 1.2 1.838 0.219 0.563 0.481 1.412 0.55 2.969 0.075 1.688 0.094 2.194 0.094 6.463s-0.019 4.781-0.094 6.463c-0.069 1.563-0.331 2.406-0.55 2.969-0.288 0.744-0.637 1.281-1.194 1.837-0.563 0.563-1.094 0.906-1.837 1.2-0.563 0.219-1.413 0.481-2.969 0.55-1.688 0.075-2.194 0.094-6.463 0.094s-4.781-0.019-6.463-0.094c-1.563-0.069-2.406-0.331-2.969-0.55-0.744-0.288-1.281-0.637-1.838-1.194-0.563-0.563-0.906-1.094-1.2-1.837-0.219-0.563-0.481-1.413-0.55-2.969-0.075-1.688-0.094-2.194-0.094-6.463s0.019-4.781 0.094-6.463c0.069-1.563 0.331-2.406 0.55-2.969 0.288-0.744 0.638-1.281 1.194-1.838 0.563-0.563 1.094-0.906 1.838-1.2 0.563-0.219 1.412-0.481 2.969-0.55 1.681-0.075 2.188-0.094 6.463-0.094zM16 0c-4.344 0-4.887 0.019-6.594 0.094-1.7 0.075-2.869 0.35-3.881 0.744-1.056 0.412-1.95 0.956-2.837 1.85-0.894 0.888-1.438 1.781-1.85 2.831-0.394 1.019-0.669 2.181-0.744 3.881-0.075 1.713-0.094 2.256-0.094 6.6s0.019 4.887 0.094 6.594c0.075 1.7 0.35 2.869 0.744 3.881 0.413 1.056 0.956 1.95 1.85 2.837 0.887 0.887 1.781 1.438 2.831 1.844 1.019 0.394 2.181 0.669 3.881 0.744 1.706 0.075 2.25 0.094 6.594 0.094s4.888-0.019 6.594-0.094c1.7-0.075 2.869-0.35 3.881-0.744 1.050-0.406 1.944-0.956 2.831-1.844s1.438-1.781 1.844-2.831c0.394-1.019 0.669-2.181 0.744-3.881 0.075-1.706 0.094-2.25 0.094-6.594s-0.019-4.887-0.094-6.594c-0.075-1.7-0.35-2.869-0.744-3.881-0.394-1.063-0.938-1.956-1.831-2.844-0.887-0.887-1.781-1.438-2.831-1.844-1.019-0.394-2.181-0.669-3.881-0.744-1.712-0.081-2.256-0.1-6.6-0.1v0z"></path>
<path d="M16 7.781c-4.537 0-8.219 3.681-8.219 8.219s3.681 8.219 8.219 8.219 8.219-3.681 8.219-8.219c0-4.537-3.681-8.219-8.219-8.219zM16 21.331c-2.944 0-5.331-2.387-5.331-5.331s2.387-5.331 5.331-5.331c2.944 0 5.331 2.387 5.331 5.331s-2.387 5.331-5.331 5.331z"></path>
<path d="M26.462 7.456c0 1.060-0.859 1.919-1.919 1.919s-1.919-0.859-1.919-1.919c0-1.060 0.859-1.919 1.919-1.919s1.919 0.859 1.919 1.919z"></path>
</symbol>

<symbol id="icon-automobile" viewBox="0 0 512 512">
<title>automobile</title>
<path style="fill:#FFB47D;" d="M489.798,239.613c-16.627-10.241-70.258-23.335-145.52-23.335l-39.756-46.38
	c-8.385-9.782-20.627-15.413-33.511-15.413H152.008c-12.644,0-24.87,4.523-34.47,12.751L70.624,207.45l-50.039,7.148
	c-7.106,1.015-12.889,6.231-14.63,13.195l-5.95,23.794l132.415,61.792h370.755v-49.903
	C503.173,253.717,498.107,244.732,489.798,239.613z"/>
<path style="fill:#FF9164;" d="M503.173,269.241c0-17.655-26.482-35.31-150.067-35.31H8.831c-4.875,0-8.827,3.953-8.827,8.827
	v52.965l167.725,26.482h335.445V269.241z"/>
<path style="fill:#FF7D5A;" d="M503.173,304.551H89.244l-78.5-17.443c-4.715-1.035-9.474,1.935-10.535,6.702
	c-1.052,4.759,1.949,9.474,6.707,10.53l79.447,17.655c0.629,0.142,1.267,0.211,1.913,0.211h414.894c4.879,0,8.828-3.953,8.828-8.827
	C511.999,308.504,508.052,304.551,503.173,304.551z"/>
<circle style="fill:#EDEDEE;" cx="423.72" cy="304.549" r="44.137"/>
<path style="fill:#504B5A;" d="M423.725,357.516c-29.207,0-52.965-23.758-52.965-52.965c0-29.207,23.758-52.965,52.965-52.965
	s52.965,23.758,52.965,52.965C476.69,333.758,452.932,357.516,423.725,357.516z M423.725,269.241
	c-19.473,0-35.31,15.837-35.31,35.31c0,19.473,15.837,35.31,35.31,35.31s35.31-15.836,35.31-35.31
	C459.035,285.078,443.199,269.241,423.725,269.241z"/>
<circle style="fill:#DCDBDE;" cx="423.72" cy="304.549" r="17.655"/>
<circle style="fill:#EDEDEE;" cx="88.275" cy="304.549" r="44.137"/>
<path style="fill:#504B5A;" d="M88.279,357.516c-29.207,0-52.965-23.758-52.965-52.965c0-29.207,23.758-52.965,52.965-52.965
	s52.965,23.758,52.965,52.965C141.243,333.758,117.485,357.516,88.279,357.516z M88.279,269.241c-19.473,0-35.31,15.837-35.31,35.31
	c0,19.473,15.837,35.31,35.31,35.31s35.31-15.836,35.31-35.31C123.589,285.078,107.752,269.241,88.279,269.241z"/>
<circle style="fill:#DCDBDE;" cx="88.275" cy="304.549" r="17.655"/>
<g>
	<path style="fill:#FF7D5A;" d="M353.105,286.896H167.728c-4.875,0-8.827-3.953-8.827-8.827l0,0c0-4.875,3.953-8.827,8.827-8.827
		h185.377c4.875,0,8.827,3.952,8.827,8.827l0,0C361.933,282.945,357.98,286.896,353.105,286.896z"/>
	<path style="fill:#FF7D5A;" d="M503.173,286.896h-8.827c-4.875,0-8.828-3.953-8.828-8.827l0,0c0-4.875,3.953-8.827,8.828-8.827
		h8.827c4.875,0,8.827,3.952,8.827,8.827l0,0C512,282.945,508.048,286.896,503.173,286.896z"/>
</g>
<path style="fill:#FF9164;" d="M70.624,207.449l46.914-40.214c9.6-8.228,21.826-12.751,34.47-12.751h119.003
	c12.885,0,25.125,5.63,33.511,15.413l39.756,46.38H135.276c-7.78,0-15.546-0.643-23.221-1.922L70.624,207.449z"/>
<path style="fill:#625D6B;" d="M261.294,169.664c-3.354-4.025-8.323-6.352-13.563-6.352h-81.524c-4.682,0-9.173,1.86-12.483,5.171
	l-26.482,26.482c-2.341,2.341-3.657,5.516-3.657,8.827l0,0c0,6.894,5.589,12.484,12.484,12.484h154.647
	c3.742,0,5.786-4.365,3.391-7.24L261.294,169.664z"/>
<polygon style="fill:#504B5A;" points="185.381,216.276 158.898,216.276 176.553,163.312 194.208,163.312 "/>
<path style="fill:#EDEDEE;" d="M493.697,242.759h-8.181c-4.875,0-8.827,3.952-8.827,8.827s3.953,8.827,8.827,8.827h17.261
	C502.011,253.548,498.814,247.337,493.697,242.759z"/>
<path style="fill:#625D6B;" d="M304.522,169.897c-2.115-2.468-4.48-4.669-7.036-6.585H283.08c-3.742,0-5.786,4.364-3.391,7.24
	l32.813,39.374c3.354,4.025,8.323,6.352,13.562,6.352h18.213L304.522,169.897z"/>
<path style="fill:#FF6464;" d="M0.004,242.759v8.827h17.655c4.875,0,8.827-3.952,8.827-8.827s-3.953-8.827-8.827-8.827H8.831
	C3.955,233.931,0.004,237.884,0.004,242.759z"/>
</symbol>

<symbol id="icon-headphones" viewBox="0 0 110 110">
<title>headphones</title>
<path d="m19.9010105 76.4447556c-3.2061939-5.849762-4.9010105-12.4892655-4.9010105-19.200634 0-22.0562325 17.9439659-40.0001984 40-40.0001984s40 17.943964 40 40.0001984c0 6.396904-1.4653168 12.5095177-4.3550644 18.1686974l-2.8968887-1.4794159c2.6536942-5.1966171 3.9993057-10.8117218 3.9993057-16.6892815 0-20.2627487-16.4848022-36.747551-36.7473526-36.747551s-36.7473526 16.4848003-36.7473526 36.747551c0 6.1666145 1.5562439 12.2653313 4.500782 17.637043z" fill="#64798a"/><path d="m90.6191025 70.8451004-2.9393234-1.7220383v-1.1587143c0-.4916382-.1653137-.9690704-.4693832-1.3554916l-1.20784-1.5348663-10.1276932 28.109108.6609039.0192184c.6718292.0195236 1.3154755-.2702255 1.7462158-.7861023l.6453705-.7729416 3.4043579.6628189c1.2457275.2425613 2.4863892-.4415588 2.946106-1.6245041l6.4602127-16.6232452c.4665527-1.2005463-.0076142-2.5622101-1.118927-3.2132416z" fill="#e6e9ef"/><path d="m86.0371094 64.6636353c-.8343048-.9542465-2.8733673-2.5325165-7.1051025-2.2580376-.5288696.0342941-.9906158.3792877-1.178894.8746758l-9.6645889 25.4338837c-.1672363.4402008-.0958099.9334106.1902008 1.3074875.8925323 1.1673126 3.1206284 3.5248032 6.5810928 3.5632553.5744476.0063705 1.0951767-.3417587 1.2987289-.8789291l10.111557-26.6834564c.1751327-.4619981.0922699-.9869692-.2329941-1.3588792z" fill="#64798a"/><path d="m19.3807964 70.8451004 2.9393272-1.7220383v-1.1587143c0-.4916382.1653137-.9690704.4693851-1.3554916l1.2078323-1.5348663 10.1276932 28.109108-.6609001.0192184c-.6718292.0195236-1.3154793-.2702255-1.7462158-.7861023l-.6453705-.7729416-3.4043617.6628189c-1.2457199.2425613-2.4863834-.4415588-2.946106-1.6245041l-6.4602126-16.6232452c-.4665508-1.2005463.0076142-2.5622101 1.1189289-3.2132416z" fill="#e6e9ef"/><path d="m23.9627914 64.6636353c.8343086-.9542465 2.8733635-2.5325165 7.1051025-2.2580376.5288715.0342941.9906158.3792877 1.1788979.8746758l9.6645813 25.4338837c.1672363.4402008.0958099.9334106-.1902008 1.3074875-.8925323 1.1673126-3.1206245 3.5248032-6.5810852 3.5632553-.5744514.0063705-1.0951805-.3417587-1.2987366-.8789291l-10.111557-26.6834564c-.175127-.4619981-.0922679-.9869692.2329979-1.3588792z" fill="#64798a"/><path d="m55 16.4150181c-12.1479836 0-23.0717163 5.3349609-30.5573254 13.7826557l3.4763947 3.4763947c6.5898647-7.5616875 16.2865429-12.3486043 27.0809307-12.3486043s20.4910889 4.7869167 27.0809555 12.3486042l3.4763718-3.4763947c-7.4855881-8.4476947-18.4093476-13.7826556-30.5573273-13.7826556z" fill="#e56353"/>
</symbol>

<symbol id="icon-smartphone" viewBox="0 0 512 512" >
<title>smartphone</title>
<path style="fill:#707384;" d="M361.931,0H150.069c-14.626,0-26.483,11.857-26.483,26.483v459.034
	c0,14.626,11.857,26.483,26.483,26.483h211.862c14.626,0,26.483-11.857,26.483-26.483V26.483C388.414,11.857,376.557,0,361.931,0z
	 M220.69,35.31c0-4.875,3.953-8.828,8.828-8.828h52.966c4.875,0,8.828,3.953,8.828,8.828l0,0c0,4.875-3.953,8.828-8.828,8.828
	h-52.966C224.642,44.138,220.69,40.185,220.69,35.31L220.69,35.31z M194.207,26.483c4.875,0,8.828,3.953,8.828,8.828
	s-3.953,8.828-8.828,8.828s-8.828-3.953-8.828-8.828S189.332,26.483,194.207,26.483z M256,494.345
	c-9.751,0-17.655-7.905-17.655-17.655c0-9.751,7.904-17.655,17.655-17.655c9.751,0,17.655,7.904,17.655,17.655
	C273.655,486.44,265.751,494.345,256,494.345z M370.759,335.448v105.931H141.241V335.448V70.621h229.517V335.448z"/>
<path style="fill:#63AFDB;" d="M141.241,335.448h70.621c0-4.875,3.953-8.828,8.828-8.828s8.828,3.953,8.828,8.828h17.655
	c0-4.875,3.953-8.828,8.828-8.828s8.828,3.953,8.828,8.828h17.655c0-4.875,3.953-8.828,8.828-8.828s8.828,3.953,8.828,8.828h70.621
	V70.621H141.241V335.448z M300.138,114.759c0-4.875,3.953-8.828,8.828-8.828h35.31c4.875,0,8.828,3.953,8.828,8.828v35.31
	c0,4.875-3.953,8.828-8.828,8.828h-35.31c-4.875,0-8.828-3.953-8.828-8.828V114.759z M300.138,185.379
	c0-4.875,3.953-8.828,8.828-8.828h35.31c4.875,0,8.828,3.953,8.828,8.828v35.31c0,4.875-3.953,8.828-8.828,8.828h-35.31
	c-4.875,0-8.828-3.953-8.828-8.828V185.379z M300.138,256c0-4.875,3.953-8.828,8.828-8.828h35.31c4.875,0,8.828,3.953,8.828,8.828
	v35.31c0,4.875-3.953,8.828-8.828,8.828h-35.31c-4.875,0-8.828-3.953-8.828-8.828V256z M229.517,114.759
	c0-4.875,3.953-8.828,8.828-8.828h35.31c4.875,0,8.828,3.953,8.828,8.828v35.31c0,4.875-3.953,8.828-8.828,8.828h-35.31
	c-4.875,0-8.828-3.953-8.828-8.828V114.759z M229.517,185.379c0-4.875,3.953-8.828,8.828-8.828h35.31
	c4.875,0,8.828,3.953,8.828,8.828v35.31c0,4.875-3.953,8.828-8.828,8.828h-35.31c-4.875,0-8.828-3.953-8.828-8.828V185.379z
	 M229.517,256c0-4.875,3.953-8.828,8.828-8.828h35.31c4.875,0,8.828,3.953,8.828,8.828v35.31c0,4.875-3.953,8.828-8.828,8.828
	h-35.31c-4.875,0-8.828-3.953-8.828-8.828V256z M158.897,114.759c0-4.875,3.953-8.828,8.828-8.828h35.31
	c4.875,0,8.828,3.953,8.828,8.828v35.31c0,4.875-3.953,8.828-8.828,8.828h-35.31c-4.875,0-8.828-3.953-8.828-8.828V114.759z
	 M158.897,185.379c0-4.875,3.953-8.828,8.828-8.828h35.31c4.875,0,8.828,3.953,8.828,8.828v35.31c0,4.875-3.953,8.828-8.828,8.828
	h-35.31c-4.875,0-8.828-3.953-8.828-8.828V185.379z M158.897,256c0-4.875,3.953-8.828,8.828-8.828h35.31
	c4.875,0,8.828,3.953,8.828,8.828v35.31c0,4.875-3.953,8.828-8.828,8.828h-35.31c-4.875,0-8.828-3.953-8.828-8.828V256z"/>
<path style="fill:#468CBE;" d="M291.31,344.276c-4.875,0-8.828-3.953-8.828-8.828h-17.655c0,4.875-3.953,8.828-8.828,8.828
	s-8.828-3.953-8.828-8.828h-17.655c0,4.875-3.953,8.828-8.828,8.828s-8.828-3.953-8.828-8.828h-70.621v105.931h229.517V335.448
	h-70.621C300.138,340.323,296.185,344.276,291.31,344.276z M211.862,406.069c0,4.875-3.953,8.828-8.828,8.828h-35.31
	c-4.875,0-8.828-3.953-8.828-8.828v-35.31c0-4.875,3.953-8.828,8.828-8.828h35.31c4.875,0,8.828,3.953,8.828,8.828V406.069z
	 M282.483,406.069c0,4.875-3.953,8.828-8.828,8.828h-35.31c-4.875,0-8.828-3.953-8.828-8.828v-35.31
	c0-4.875,3.953-8.828,8.828-8.828h35.31c4.875,0,8.828,3.953,8.828,8.828V406.069z M308.966,361.931h35.31
	c4.875,0,8.828,3.953,8.828,8.828v35.31c0,4.875-3.953,8.828-8.828,8.828h-35.31c-4.875,0-8.828-3.953-8.828-8.828v-35.31
	C300.138,365.884,304.09,361.931,308.966,361.931z"/>
<g>
	<path style="fill:#464655;" d="M229.517,44.138h52.966c4.875,0,8.828-3.953,8.828-8.828l0,0c0-4.875-3.953-8.828-8.828-8.828
		h-52.966c-4.875,0-8.828,3.953-8.828,8.828l0,0C220.69,40.185,224.642,44.138,229.517,44.138z"/>
	<circle style="fill:#464655;" cx="194.207" cy="35.31" r="8.828"/>
	<circle style="fill:#464655;" cx="256" cy="476.69" r="17.655"/>
</g>
<path style="fill:#63AFDB;" d="M273.655,361.931h-35.31c-4.875,0-8.828,3.953-8.828,8.828v35.31c0,4.875,3.953,8.828,8.828,8.828
	h35.31c4.875,0,8.828-3.953,8.828-8.828v-35.31C282.483,365.884,278.53,361.931,273.655,361.931z M256,406.069
	c-9.751,0-17.655-7.905-17.655-17.655c0-9.751,7.904-17.655,17.655-17.655c9.751,0,17.655,7.904,17.655,17.655
	C273.655,398.164,265.751,406.069,256,406.069z"/>
<path style="fill:#FF6469;" d="M300.138,406.069c0,4.875,3.953,8.828,8.828,8.828h35.31c4.875,0,8.828-3.953,8.828-8.828v-35.31
	c0-4.875-3.953-8.828-8.828-8.828h-35.31c-4.875,0-8.828,3.953-8.828,8.828V406.069z"/>
<path style="fill:#00DCCD;" d="M203.034,361.931h-35.31c-4.875,0-8.828,3.953-8.828,8.828v35.31c0,4.875,3.953,8.828,8.828,8.828
	h35.31c4.875,0,8.828-3.953,8.828-8.828v-35.31C211.862,365.884,207.91,361.931,203.034,361.931z"/>
<path style="fill:#FFDC69;" d="M238.345,300.138h35.31c4.875,0,8.828-3.953,8.828-8.828V256c0-4.875-3.953-8.828-8.828-8.828h-35.31
	c-4.875,0-8.828,3.953-8.828,8.828v35.31C229.517,296.185,233.47,300.138,238.345,300.138z"/>
<path style="fill:#FFFFFF;" d="M308.966,300.138h35.31c4.875,0,8.828-3.953,8.828-8.828V256c0-4.875-3.953-8.828-8.828-8.828h-35.31
	c-4.875,0-8.828,3.953-8.828,8.828v35.31C300.138,296.185,304.09,300.138,308.966,300.138z M308.966,273.655
	c0-4.875,3.953-8.828,8.828-8.828h17.655c4.875,0,8.828,3.953,8.828,8.828l0,0c0,4.875-3.953,8.828-8.828,8.828h-17.655
	C312.918,282.483,308.966,278.53,308.966,273.655L308.966,273.655z"/>
<path style="fill:#468CBE;" d="M167.724,300.138h35.31c4.875,0,8.828-3.953,8.828-8.828V256c0-4.875-3.953-8.828-8.828-8.828h-35.31
	c-4.875,0-8.828,3.953-8.828,8.828v35.31C158.897,296.185,162.849,300.138,167.724,300.138z M167.724,273.655
	c0-4.875,3.953-8.828,8.828-8.828h17.655c4.875,0,8.828,3.953,8.828,8.828l0,0c0,4.875-3.953,8.828-8.828,8.828h-17.655
	C171.677,282.483,167.724,278.53,167.724,273.655L167.724,273.655z"/>
<path style="fill:#464655;" d="M238.345,229.517h35.31c4.875,0,8.828-3.953,8.828-8.828v-35.31c0-4.875-3.953-8.828-8.828-8.828
	h-35.31c-4.875,0-8.828,3.953-8.828,8.828v35.31C229.517,225.565,233.47,229.517,238.345,229.517z M238.345,203.034
	c0-4.875,3.953-8.828,8.828-8.828h17.655c4.875,0,8.828,3.953,8.828,8.828l0,0c0,4.875-3.953,8.828-8.828,8.828h-17.655
	C242.297,211.862,238.345,207.91,238.345,203.034L238.345,203.034z"/>
<path style="fill:#FFA055;" d="M308.966,229.517h35.31c4.875,0,8.828-3.953,8.828-8.828v-35.31c0-4.875-3.953-8.828-8.828-8.828
	h-35.31c-4.875,0-8.828,3.953-8.828,8.828v35.31C300.138,225.565,304.09,229.517,308.966,229.517z"/>
<path style="fill:#A0D778;" d="M167.724,229.517h35.31c4.875,0,8.828-3.953,8.828-8.828v-35.31c0-4.875-3.953-8.828-8.828-8.828
	h-35.31c-4.875,0-8.828,3.953-8.828,8.828v35.31C158.897,225.565,162.849,229.517,167.724,229.517z M185.379,185.379
	c9.751,0,17.655,7.904,17.655,17.655c0,9.75-7.904,17.655-17.655,17.655c-9.751,0-17.655-7.905-17.655-17.655
	C167.724,193.283,175.628,185.379,185.379,185.379z"/>
<path style="fill:#FF6469;" d="M238.345,158.897h35.31c4.875,0,8.828-3.953,8.828-8.828v-35.31c0-4.875-3.953-8.828-8.828-8.828
	h-35.31c-4.875,0-8.828,3.953-8.828,8.828v35.31C229.517,154.944,233.47,158.897,238.345,158.897z"/>
<path style="fill:#00DCCD;" d="M308.966,158.897h35.31c4.875,0,8.828-3.953,8.828-8.828v-35.31c0-4.875-3.953-8.828-8.828-8.828
	h-35.31c-4.875,0-8.828,3.953-8.828,8.828v35.31C300.138,154.944,304.09,158.897,308.966,158.897z M326.621,114.759
	c9.751,0,17.655,7.904,17.655,17.655c0,9.75-7.904,17.655-17.655,17.655c-9.751,0-17.655-7.905-17.655-17.655
	C308.966,122.663,316.87,114.759,326.621,114.759z"/>
<g>
	<path style="fill:#FFDC69;" d="M167.724,158.897h35.31c4.875,0,8.828-3.953,8.828-8.828v-35.31c0-4.875-3.953-8.828-8.828-8.828
		h-35.31c-4.875,0-8.828,3.953-8.828,8.828v35.31C158.897,154.944,162.849,158.897,167.724,158.897z"/>
	<circle style="fill:#FFDC69;" cx="185.379" cy="203.034" r="17.655"/>
	<circle style="fill:#FFDC69;" cx="256" cy="388.414" r="17.655"/>
</g>
<circle style="fill:#FF6469;" cx="326.621" cy="132.414" r="17.655"/>
<path style="fill:#468CBE;" d="M247.172,211.862h17.655c4.875,0,8.828-3.953,8.828-8.828l0,0c0-4.875-3.953-8.828-8.828-8.828
	h-17.655c-4.875,0-8.828,3.953-8.828,8.828l0,0C238.345,207.91,242.297,211.862,247.172,211.862z"/>
<path style="fill:#FF6469;" d="M317.793,282.483h17.655c4.875,0,8.828-3.953,8.828-8.828l0,0c0-4.875-3.953-8.828-8.828-8.828
	h-17.655c-4.875,0-8.828,3.953-8.828,8.828l0,0C308.966,278.53,312.918,282.483,317.793,282.483z"/>
<path style="fill:#FFFFFF;" d="M176.552,282.483h17.655c4.875,0,8.828-3.953,8.828-8.828l0,0c0-4.875-3.953-8.828-8.828-8.828
	h-17.655c-4.875,0-8.828,3.953-8.828,8.828l0,0C167.724,278.53,171.677,282.483,176.552,282.483z"/>
<circle style="fill:#464655;" cx="220.69" cy="335.448" r="8.828"/>
<g>
	<circle style="fill:#FFFFFF;" cx="256" cy="335.448" r="8.828"/>
	<circle style="fill:#FFFFFF;" cx="291.31" cy="335.448" r="8.828"/>
</g>
</symbol>

<symbol id="icon-laptop" viewBox="0 0 512 512">
<title>laptop</title>
<path style="fill:#38454F;" d="M185.379,384v17.655h141.241V384H476.69V101.517c0-9.754-7.901-17.655-17.655-17.655H52.966
		c-9.754,0-17.655,7.901-17.655,17.655V384H185.379z"/>
	<path style="fill:#B0B6BB;" d="M326.621,384v17.655H185.379V384H0v26.483c0,9.754,7.901,17.655,17.655,17.655h476.69
		c9.754,0,17.655-7.901,17.655-17.655V384H326.621z"/>
	<polygon style="fill:#546A79;" points="52.966,366.345 459.034,366.345 459.034,101.517 52.966,101.517 	"/>
	<g>
		<path style="fill:#25AE88;" d="M291.31,348.69c-4.882,0-8.828-3.955-8.828-8.828v-26.483c0-4.873,3.946-8.828,8.828-8.828
			c4.882,0,8.828,3.955,8.828,8.828v26.483C300.138,344.735,296.192,348.69,291.31,348.69"/>
		<path style="fill:#25AE88;" d="M326.621,348.69c-4.882,0-8.828-3.955-8.828-8.828v-61.793c0-4.873,3.946-8.828,8.828-8.828
			c4.882,0,8.828,3.955,8.828,8.828v61.793C335.448,344.735,331.502,348.69,326.621,348.69"/>
		<path style="fill:#25AE88;" d="M361.931,348.69c-4.882,0-8.828-3.955-8.828-8.828v-44.138c0-4.873,3.946-8.828,8.828-8.828
			c4.882,0,8.828,3.955,8.828,8.828v44.138C370.759,344.735,366.813,348.69,361.931,348.69"/>
		<path style="fill:#25AE88;" d="M397.241,348.69c-4.882,0-8.828-3.955-8.828-8.828V233.931c0-4.873,3.946-8.828,8.828-8.828
			c4.882,0,8.828,3.955,8.828,8.828v105.931C406.069,344.735,402.123,348.69,397.241,348.69"/>
		<path style="fill:#25AE88;" d="M432.552,348.69c-4.882,0-8.828-3.955-8.828-8.828v-70.621c0-4.873,3.946-8.828,8.828-8.828
			c4.882,0,8.828,3.955,8.828,8.828v70.621C441.379,344.735,437.433,348.69,432.552,348.69"/>
	</g>
	<path style="fill:#DD691D;" d="M256,220.69c0,51.191-41.498,92.69-92.69,92.69s-92.69-41.498-92.69-92.69S112.119,128,163.31,128
		S256,169.498,256,220.69"/>
	<path style="fill:#ECBA16;" d="M159.017,128.097c-0.044,0.044-0.071,0.079-0.124,0.124v96.556c0,0.185,0.15,0.327,0.327,0.327
		h96.556c0.044-0.044,0.079-0.071,0.124-0.124C258.363,170.399,213.598,125.634,159.017,128.097"/>
	<g>
		<path style="fill:#DD691D;" d="M388.414,180.966h-70.621c-4.882,0-8.828-3.955-8.828-8.828c0-4.873,3.946-8.828,8.828-8.828
			h70.621c4.882,0,8.828,3.955,8.828,8.828C397.241,177.011,393.295,180.966,388.414,180.966"/>
		<path style="fill:#DD691D;" d="M432.552,180.966c-2.295,0-4.599-0.971-6.268-2.56c-0.353-0.441-0.794-0.883-1.059-1.324
			c-0.353-0.53-0.618-1.059-0.794-1.589c-0.265-0.53-0.441-1.059-0.53-1.589c-0.088-0.618-0.177-1.236-0.177-1.766
			c0-1.148,0.265-2.295,0.706-3.354c0.441-1.059,1.059-2.03,1.854-2.913c3.266-3.266,9.181-3.266,12.535,0
			c0.794,0.883,1.412,1.766,1.854,2.913c0.441,1.059,0.706,2.207,0.706,3.354c0,2.383-0.971,4.59-2.56,6.268
			C437.142,179.994,434.847,180.966,432.552,180.966"/>
		<path style="fill:#DD691D;" d="M432.552,136.828h-26.483c-4.882,0-8.828-3.955-8.828-8.828c0-4.873,3.946-8.828,8.828-8.828
			h26.483c4.882,0,8.828,3.955,8.828,8.828C441.379,132.873,437.433,136.828,432.552,136.828"/>
		<path style="fill:#DD691D;" d="M335.448,136.828h-17.655c-4.882,0-8.828-3.955-8.828-8.828c0-4.873,3.946-8.828,8.828-8.828
			h17.655c4.882,0,8.828,3.955,8.828,8.828C344.276,132.873,340.33,136.828,335.448,136.828"/>
		<path style="fill:#DD691D;" d="M370.759,136.828c-1.148,0-2.295-0.265-3.354-0.706c-1.148-0.441-2.03-1.059-2.913-1.854
			c-0.794-0.883-1.412-1.854-1.854-2.913c-0.53-1.059-0.706-2.207-0.706-3.354c0-1.148,0.177-2.295,0.706-3.354
			c0.441-1.148,1.059-2.03,1.854-2.913c0.883-0.794,1.766-1.412,2.913-1.854c3.266-1.324,7.15-0.618,9.622,1.854
			c0.794,0.883,1.412,1.766,1.854,2.913c0.441,1.059,0.706,2.207,0.706,3.354c0,1.148-0.265,2.295-0.706,3.354
			c-0.441,1.059-1.059,2.03-1.854,2.913C375.349,135.857,373.054,136.828,370.759,136.828"/>
</symbol>



<symbol id="icon-furniture" viewBox="0 0 64 64">
<title>furniture</title>
<path d="m9 36v-15.556c0-2.454.9-4.444 2-4.444h42c1.1 0 2 1.99 2 4.444v15.556z" fill="#bd2029"/><rect fill="#891024" height="10" rx="2" width="18" x="13" y="22"/><rect fill="#891024" height="10" rx="2" width="18" x="33" y="22"/><rect fill="#96111b" height="4" rx="2" width="46" x="9" y="32"/><path d="m9 36h46v7h-46z" fill="#891024"/><path d="m9 48h3a1 1 0 0 0 1-1 1 1 0 0 1 1-1h36a1 1 0 0 1 1 1 1 1 0 0 0 1 1h3v-5h-46z" fill="#7c0917"/><g fill="#96111b"><path d="m3 27h6v21h-6z"/><path d="m55 27h6v21h-6z"/></g>
</symbol>

<symbol id="icon-truck" viewBox="0 -56 504 504">
<title>truck</title>
<path d="m264.160156 176.167969h31.917969v24h-31.917969zm0 0" fill="#aab2bd"/><path d="m328 88.480469v73.28125c-.808594 8.078125-7.601562 14.40625-15.921875 14.40625h-16v-87.6875zm0 0" fill="#545c66"/><path d="m296.078125 88.480469v47.6875h-256.078125v-96.078125c.078125-17.769532 14.398438-32.097656 32.160156-32.097656l191.917969.167968c17.683594 0 31.921875 14.230469 32 31.917969zm0 0" fill="#434a54"/><path d="m40 136.167969v40h-16c-8.808594 0-16-7.199219-16-16v-71.839844h32zm0 0" fill="#545c66"/><path d="m296.078125 136.167969v40h-256.078125v-40zm0 0" fill="#656d78"/><path d="m40 176.167969h32.160156v24h-32.160156zm0 0" fill="#aab2bd"/><path d="m104 272.246094c30.960938 0 56 25.035156 56 56 0 30.953125-25.039062 56-56 56s-56-25.046875-56-56c0-30.964844 25.039062-56 56-56zm24 56c0-13.277344-10.71875-24-24-24s-24 10.722656-24 24c0 13.28125 10.71875 24 24 24s24-10.71875 24-24zm0 0" fill="#656d78"/><path d="m104 304.246094c13.28125 0 24 10.722656 24 24 0 13.28125-10.71875 24-24 24s-24-10.71875-24-24c0-13.277344 10.71875-24 24-24zm0 0" fill="#ccd1d9"/><path d="m400 304.246094c13.28125 0 24 10.722656 24 24 0 13.28125-10.71875 24-24 24s-24-10.71875-24-24c0-13.277344 10.71875-24 24-24zm0 0" fill="#ccd1d9"/><path d="m400 272.246094c30.960938 0 56 25.035156 56 56 0 30.953125-25.039062 56-56 56s-56-25.046875-56-56c0-30.964844 25.039062-56 56-56zm24 56c0-13.277344-10.71875-24-24-24s-24 10.722656-24 24c0 13.28125 10.71875 24 24 24s24-10.71875 24-24zm0 0" fill="#656d78"/><path d="m352 112.246094h32v64h-32zm0 0" fill="#5d9cec"/><path d="m416.640625 112.246094 39.359375 64h-72v-64zm0 0" fill="#5d9cec"/><path d="m328 200.246094v32h-320v-32zm0 0" fill="#a0d468"/><path d="m416.640625 112.246094h-64.640625v64h104zm-88.5625-24h103.921875l64 104v136h-40c0-30.964844-25.039062-56-56-56s-56 25.035156-56 56h-184c0-30.964844-25.039062-56-56-56s-56 25.035156-56 56h-40v-96h320v-70.484375c.078125-.488281.078125-1.050781.078125-1.59375zm0 0" fill="#a0d468"/><path d="m496 288.238281c-4.425781 0-8-3.574219-8-8v-88c0-4.421875 3.574219-8 8-8s8 3.578125 8 8v88c0 4.417969-3.574219 8-8 8zm0 0"/><path d="m496.007812 200.238281c-2.6875 0-5.3125-1.351562-6.824218-3.804687l-64-104c-2.3125-3.769532-1.144532-8.699219 2.617187-11.007813 3.773438-2.328125 8.695313-1.144531 11.007813 2.613281l64 104c2.3125 3.769532 1.144531 8.695313-2.617188 11.007813-1.3125.808594-2.75 1.191406-4.183594 1.191406zm0 0"/><path d="m456.007812 184.238281c-2.6875 0-5.3125-1.351562-6.824218-3.804687l-39.390625-64.019532c-2.320313-3.765624-1.144531-8.695312 2.613281-11.007812 3.785156-2.316406 8.699219-1.140625 11.007812 2.617188l39.394532 64.015624c2.320312 3.769532 1.144531 8.695313-2.617188 11.007813-1.3125.808594-2.75 1.191406-4.183594 1.191406zm0 0"/><path d="m432 96.238281h-135.921875c-4.421875 0-8-3.574219-8-8 0-4.421875 3.578125-8 8-8h135.921875c4.425781 0 8 3.578125 8 8 0 4.425781-3.574219 8-8 8zm0 0"/><path d="m328 264.238281c-4.425781 0-8-3.574219-8-8v-167.949219c0-4.425781 3.574219-8 8-8s8 3.574219 8 8v167.941407c0 4.425781-3.574219 8.007812-8 8.007812zm0 0"/><path d="m328 240.238281h-320c-4.425781 0-8-3.574219-8-8 0-4.421875 3.574219-8 8-8h320c4.425781 0 8 3.578125 8 8 0 4.425781-3.574219 8-8 8zm0 0"/><path d="m8 288.238281c-4.425781 0-8-3.574219-8-8v-80c0-4.421875 3.574219-8 8-8s8 3.578125 8 8v80c0 4.417969-3.574219 8-8 8zm0 0"/><path d="m328 208.238281h-320c-4.425781 0-8-3.574219-8-8 0-4.421875 3.574219-8 8-8h320c4.425781 0 8 3.578125 8 8 0 4.425781-3.574219 8-8 8zm0 0"/><path d="m8 336.238281c-4.425781 0-8-3.574219-8-8v-48c0-4.421875 3.574219-8 8-8s8 3.578125 8 8v48c0 4.417969-3.574219 8-8 8zm0 0"/><path d="m344 336.238281h-184c-4.425781 0-8-3.574219-8-8 0-4.421875 3.574219-8 8-8h184c4.425781 0 8 3.578125 8 8 0 4.425781-3.574219 8-8 8zm0 0"/><path d="m496 336.238281c-4.425781 0-8-3.574219-8-8v-48c0-4.421875 3.574219-8 8-8s8 3.578125 8 8v48c0 4.417969-3.574219 8-8 8zm0 0"/><path d="m400 360.238281c-17.648438 0-32-14.351562-32-32 0-17.644531 14.351562-32 32-32s32 14.355469 32 32c0 17.648438-14.351562 32-32 32zm0-48c-8.824219 0-16 7.175781-16 16s7.175781 16 16 16 16-7.175781 16-16-7.175781-16-16-16zm0 0"/><path d="m400 392.238281c-35.289062 0-64-28.710937-64-64 0-35.285156 28.710938-64 64-64s64 28.714844 64 64c0 35.289063-28.710938 64-64 64zm0-112c-26.472656 0-48 21.53125-48 48 0 26.472657 21.527344 48 48 48s48-21.527343 48-48c0-26.46875-21.527344-48-48-48zm0 0"/><path d="m104 360.238281c-17.648438 0-32-14.351562-32-32 0-17.644531 14.351562-32 32-32s32 14.355469 32 32c0 17.648438-14.351562 32-32 32zm0-48c-8.824219 0-16 7.175781-16 16s7.175781 16 16 16 16-7.175781 16-16-7.175781-16-16-16zm0 0"/><path d="m104 392.238281c-35.289062 0-64-28.710937-64-64 0-35.285156 28.710938-64 64-64s64 28.714844 64 64c0 35.289063-28.710938 64-64 64zm0-112c-26.472656 0-48 21.53125-48 48 0 26.472657 21.527344 48 48 48s48-21.527343 48-48c0-26.46875-21.527344-48-48-48zm0 0"/><path d="m48 336.238281h-40c-4.425781 0-8-3.574219-8-8 0-4.421875 3.574219-8 8-8h40c4.425781 0 8 3.578125 8 8 0 4.425781-3.574219 8-8 8zm0 0"/><path d="m496 336.238281h-40c-4.425781 0-8-3.574219-8-8 0-4.421875 3.574219-8 8-8h40c4.425781 0 8 3.578125 8 8 0 4.425781-3.574219 8-8 8zm0 0"/><path d="m352 184.238281c-4.425781 0-8-3.574219-8-8v-64c0-4.421875 3.574219-8 8-8s8 3.578125 8 8v64c0 4.417969-3.574219 8-8 8zm0 0"/><path d="m456 184.238281h-104c-4.425781 0-8-3.574219-8-8 0-4.421875 3.574219-8 8-8h104c4.425781 0 8 3.578125 8 8 0 4.425781-3.574219 8-8 8zm0 0"/><path d="m416.609375 120.238281h-64.609375c-4.425781 0-8-3.574219-8-8 0-4.421875 3.574219-8 8-8h64.609375c4.421875 0 8 3.578125 8 8 0 4.425781-3.578125 8-8 8zm0 0"/><path d="m384 184.238281c-4.425781 0-8-3.574219-8-8v-64.015625c0-4.421875 3.574219-8 8-8s8 3.578125 8 8v64.015625c0 4.417969-3.574219 8-8 8zm0 0"/><path d="m360 232.238281h-8c-4.425781 0-8-3.574219-8-8 0-4.421875 3.574219-8 8-8h8c4.425781 0 8 3.578125 8 8 0 4.425781-3.574219 8-8 8zm0 0"/><path d="m24.015625 184.144531c-13.230469 0-24-10.769531-24-24 0-4.425781 3.578125-8 8-8 4.425781 0 8 3.574219 8 8 0 4.414063 3.585937 8 8 8 4.425781 0 8 3.574219 8 8 0 4.421875-3.574219 8-8 8zm0 0"/><path d="m312.078125 184.144531c-4.421875 0-8-3.578125-8-8 0-4.425781 3.578125-8 8-8 4.417969 0 8-3.585937 8-8 0-4.425781 3.578125-8 8-8 4.425781 0 8 3.574219 8 8 0 13.230469-10.765625 24-24 24zm0 0"/><path d="m8.015625 168.144531c-4.421875 0-8-3.578125-8-8v-72.023437c0-4.425782 3.578125-8 8-8 4.425781 0 8 3.574218 8 8v72.023437c0 4.421875-3.574219 8-8 8zm0 0"/><path d="m312.078125 184.144531h-288.0625c-4.421875 0-8-3.578125-8-8 0-4.425781 3.578125-8 8-8h288.0625c4.425781 0 8 3.574219 8 8 0 4.421875-3.574219 8-8 8zm0 0"/><path d="m328.078125 168.144531c-4.421875 0-8-3.578125-8-8v-72.023437c0-4.425782 3.578125-8 8-8 4.425781 0 8 3.574218 8 8v72.023437c0 4.421875-3.574219 8-8 8zm0 0"/><path d="m296.078125 208.167969c-4.421875 0-8-3.574219-8-8v-160.097657c0-4.421874 3.578125-8 8-8 4.425781 0 8 3.578126 8 8v160.097657c0 4.425781-3.574219 8-8 8zm0 0"/><path d="m40.015625 208.167969c-4.421875 0-8-3.574219-8-8v-160.097657c0-4.421874 3.578125-8 8-8 4.425781 0 8 3.578126 8 8v160.097657c0 4.425781-3.574219 8-8 8zm0 0"/><path d="m40.015625 48.128906c-4.421875 0-8-3.578125-8-8 0-22.128906 18-40.128906 40.128906-40.128906 4.421875 0 8 3.574219 8 8s-3.578125 8-8 8c-13.304687 0-24.128906 10.824219-24.128906 24.128906 0 4.421875-3.574219 8-8 8zm0 0"/><path d="m296.078125 48.121094c-4.421875 0-8-3.578125-8-8 0-13.234375-10.765625-24-24-24-4.421875 0-8-3.578125-8-8 0-4.425782 3.578125-8 8-8 22.058594 0 40 17.941406 40 40 0 4.421875-3.574219 8-8 8zm0 0"/><path d="m264.078125 16.121094-191.941406-.121094c-4.417969 0-7.992188-3.585938-7.992188-8.007812 0-4.417969 3.582031-7.992188 8-7.992188h.007813l191.9375.121094c4.414062 0 7.988281 3.582031 7.988281 8.007812 0 4.414063-3.582031 7.992188-8 7.992188zm0 0"/><path d="m296.078125 144.144531h-255.390625c-4.421875 0-8-3.578125-8-8 0-4.425781 3.578125-8 8-8h255.390625c4.425781 0 8 3.574219 8 8 0 4.421875-3.574219 8-8 8zm0 0"/><path d="m72.152344 208.144531c-4.425782 0-8-3.578125-8-8v-23.992187c0-4.425782 3.574218-8 8-8 4.421875 0 8 3.574218 8 8v23.992187c0 4.421875-3.585938 8-8 8zm0 0"/><path d="m72.152344 208.144531h-32.136719c-4.421875 0-8-3.578125-8-8 0-4.425781 3.578125-8 8-8h32.136719c4.421875 0 8 3.574219 8 8 0 4.421875-3.585938 8-8 8zm0 0"/><path d="m264.191406 208.167969c-4.421875 0-8-3.574219-8-8v-24.023438c0-4.425781 3.578125-8 8-8 4.425782 0 8 3.574219 8 8v24.023438c0 4.425781-3.574218 8-8 8zm0 0"/><path d="m296.078125 208.167969h-31.878906c-4.421875 0-8-3.574219-8-8s3.578125-8 8-8h31.878906c4.425781 0 8 3.574219 8 8s-3.574219 8-8 8zm0 0"/><path d="m168.167969 96.222656c-4.425781 0-8.039063-3.574218-8.039063-8 0-4.421875 3.535156-8 7.949219-8h.089844c4.417969 0 8 3.578125 8 8 0 4.425782-3.59375 8-8 8zm0 0"/><path d="m232.296875 96.222656c-4.425781 0-8.039063-3.574218-8.039063-8 0-4.421875 3.535157-8 7.949219-8h.089844c4.414063 0 8 3.578125 8 8 0 4.425782-3.585937 8-8 8zm0 0"/><path d="m104.28125 96.222656c-4.425781 0-8.042969-3.574218-8.042969-8 0-4.421875 3.539063-8 7.953125-8h.089844c4.414062 0 8 3.578125 8 8 0 4.425782-3.585938 8-8 8zm0 0"/><path d="m200.289062 64.097656c-4.425781 0-8.042968-3.578125-8.042968-8 0-4.425781 3.539062-8 7.953125-8h.089843c4.414063 0 8 3.574219 8 8 0 4.421875-3.585937 8-8 8zm0 0"/><path d="m136.289062 64.097656c-4.425781 0-8.042968-3.578125-8.042968-8 0-4.425781 3.539062-8 7.953125-8h.089843c4.414063 0 8 3.574219 8 8 0 4.421875-3.585937 8-8 8zm0 0"/><path d="m40.015625 96.3125h-32c-4.421875 0-8-3.578125-8-8 0-4.425781 3.578125-8 8-8h32c4.425781 0 8 3.574219 8 8 0 4.421875-3.574219 8-8 8zm0 0"/>
</symbol>

<symbol id="icon-clothes" viewBox="0 0 512.081 512.081">
<title>clothes</title>
<path style="fill:#03A9F4;" d="M443.966,45.03C409.641,18.044,336.19,1.062,333.075,0.358c-5.744-1.308-11.461,2.288-12.768,8.032
	c-0.176,0.773-0.265,1.564-0.266,2.357c0,14.4-29.547,32-64,32s-64-17.6-64-32c0.002-3.246-1.474-6.316-4.011-8.341
	c-2.508-2.085-5.848-2.875-9.024-2.133c-3.115,0.704-76.544,17.707-110.933,44.672C32.553,72.977,22.441,208.06,21.374,223.356
	c-0.292,4.347,2.09,8.435,6.016,10.325c25.062,11.606,51.856,19.028,79.317,21.973v224.427c0.007,3.944,2.189,7.562,5.675,9.408
	c1.728,0.939,43.605,22.592,143.659,22.592s141.931-21.653,143.659-22.592c3.485-1.846,5.668-5.464,5.675-9.408V255.654
	c27.454-2.947,54.24-10.37,79.296-21.973c3.934-1.884,6.325-5.973,6.037-10.325C489.641,208.06,479.529,72.977,443.966,45.03z"/>
<g>
	<path style="fill:#0288D1;" d="M117.374,256.081c-5.891,0-10.667-4.776-10.667-10.667v-64c0.872-20.389-5.591-40.416-18.219-56.448
		c-4.092-4.237-3.975-10.99,0.262-15.083c4.134-3.992,10.687-3.992,14.82,0c16.815,19.944,25.545,45.466,24.469,71.531v64
		C128.041,251.305,123.265,256.081,117.374,256.081z"/>
	<path style="fill:#0288D1;" d="M394.707,256.081c-5.891,0-10.667-4.776-10.667-10.667v-64
		c-1.087-26.069,7.636-51.599,24.448-71.552c4.093-4.237,10.845-4.355,15.083-0.262c4.237,4.093,4.354,10.845,0.262,15.083
		c-0.086,0.089-0.173,0.176-0.262,0.262c-12.625,16.041-19.081,36.076-18.197,56.469v64
		C405.374,251.305,400.598,256.081,394.707,256.081z"/>
</g>
<path style="fill:#1976D2;" d="M337.491,2.534c-2.437-2.044-5.668-2.875-8.789-2.261C304.7,5.14,280.44,8.637,256.041,10.748
	c-24.4-2.11-48.659-5.607-72.661-10.475c-3.121-0.611-6.351,0.22-8.789,2.261c-2.454,2.022-3.877,5.034-3.883,8.213
	c0,32,44.117,53.333,85.333,53.333s85.333-21.333,85.333-53.333C341.369,7.568,339.945,4.556,337.491,2.534z"/>
</symbol>

<symbol id="icon-shoes" viewBox="0 -137 512.00007 512">
<title>shoes</title>
<path d="m202.070312 53.867188c-16.304687-16.304688-17.597656-28.738282-5.824218-47.4375 11.777344-18.703126 48.898437 9.351562 48.898437 9.351562v104.863281" fill="#fee372"/><path d="m502.179688 182.578125c0 31.859375-43.640626 54.71875-96.28125 54.71875h-281.222657c-25.300781 0-46.457031-2.839844-63.730469-6.859375-41.863281-9.726562-60.945312-26.382812-60.945312-26.382812l18.699219-45.03125 46.007812 2.242187zm0 0" fill="#cce6f6"/><path d="m502.179688 182.578125s-51.25 18.699219-120.519532 18.699219c-50.378906 0-219.480468-22.355469-307.949218-34.550782-33.175782-4.558593-55.011719-7.707031-55.011719-7.707031-13.277344-18.378906 12.957031-81.523437 27.671875-113.46875 7.769531-16.847656 23.597656-28.839843 42.03125-30.988281 1.710937-.203125 3.414062-.308594 5.101562-.308594 9.292969 0 15.265625 15.5 24.207032 30.488282 8.378906 14.074218 19.359374 27.695312 38.132812 27.695312 38.789062 0 89.296875-56.652344 89.296875-56.652344 99.203125 67.960938 176 98.214844 176 98.214844s64.070313.351562 79.65625 15.9375c15.585937 15.582031 13.820313 44.328125 1.382813 52.640625zm0 0" fill="#fb6572"/><path d="m73.714844 166.730469-12.769532 63.707031c-41.863281-9.726562-60.945312-26.382812-60.945312-26.382812l18.699219-45.03125 46.007812 2.242187zm0 0" fill="#9dcae0"/><path d="m117.714844 44.742188c-21.316406-26.808594-61.957032 65.472656-44 121.988281-33.179688-4.5625-55.015625-7.707031-55.015625-7.707031-13.277344-18.382813 12.960937-81.527344 27.671875-113.472657 7.769531-16.847656 23.601562-28.839843 42.035156-30.988281 1.710938-.199219 3.410156-.308594 5.101562-.308594 9.289063 0 15.265626 15.5 24.207032 30.488282zm0 0" fill="#ea394e"/><path d="m279.136719 38.214844-94.101563 104.703125c-31.847656-18.914063-77.71875-34.445313-111.472656-44.339844-25.375-7.445313-43.902344-11.714844-44.46875-11.84375 3.222656-8.632813 6.667969-17.074219 9.984375-24.769531l41.5 13.554687 11.726563 3.828125c13.511718 4.410156 28.277343 2.675782 40.40625-4.730468l8.652343-5.285157c4.253907 1.957031 9.039063 3.105469 14.480469 3.105469 38.789062 0 89.296875-56.652344 89.296875-56.652344 11.671875 7.996094 23.039063 15.46875 33.996094 22.429688zm0 0" fill="#4695bc"/><path d="m502.191406 182.574219s-51.261718 18.699219-120.53125 18.699219c-14.808594 0-39.875-1.933594-70.148437-4.964844v-.007813c0-16.054687 41.054687-53.910156 72.222656-56.671875 5.550781 27.011719 37.410156 19.390625 61.65625 11.074219 24.238281-8.3125 55.410156-20.769531 55.410156-20.769531 15.582031 15.585937 13.816407 44.328125 1.390625 52.640625zm0 0" fill="#4695bc"/><path d="m80.578125 75.519531c-2.742187 7.101563-5.144531 14.902344-7.015625 23.058594-25.375-7.445313-43.902344-11.714844-44.46875-11.84375 3.222656-8.632813 6.667969-17.074219 9.984375-24.769531zm0 0" fill="#0e708e"/><path d="m383.734375 139.628906c-31.167969 2.761719-72.222656 40.617188-72.222656 56.671875v.007813c-26.820313-2.699219-57.726563-6.261719-89.183594-10.109375 0-15.550781-15.296875-30.222657-37.289063-43.277344v-.007813l94.101563-104.703124c82.214844 52.230468 142.003906 75.785156 142.003906 75.785156 14.542969 14.542968-6.230469 22.855468-37.410156 25.632812zm0 0" fill="#fee372"/><g fill="#fb6572"><path d="m288.839844 72.65625c-2.007813 0-4.011719-.761719-5.542969-2.292969-3.058594-3.0625-3.058594-8.023437 0-11.082031l20.089844-20.089844c3.0625-3.058594 8.023437-3.058594 11.082031 0 3.058594 3.0625 3.0625 8.023438 0 11.082032l-20.089844 20.089843c-1.527344 1.53125-3.535156 2.292969-5.539062 2.292969zm0 0"/><path d="m314.589844 87.082031c-2.007813 0-4.011719-.765625-5.542969-2.296875-3.0625-3.058594-3.0625-8.019531 0-11.082031l20.089844-20.085937c3.0625-3.058594 8.023437-3.058594 11.082031 0 3.058594 3.0625 3.058594 8.023437 0 11.082031l-20.089844 20.085937c-1.527344 1.53125-3.535156 2.296875-5.539062 2.296875zm0 0"/><path d="m340.339844 101.507812c-2.007813 0-4.011719-.765624-5.542969-2.296874-3.058594-3.058594-3.058594-8.023438 0-11.082032l20.089844-20.085937c3.0625-3.0625 8.023437-3.0625 11.082031 0 3.058594 3.058593 3.0625 8.023437 0 11.082031l-20.089844 20.085938c-1.527344 1.53125-3.535156 2.296874-5.539062 2.296874zm0 0"/><path d="m366.089844 115.929688c-2.003906 0-4.011719-.761719-5.539063-2.292969-3.0625-3.0625-3.0625-8.023438 0-11.082031l20.085938-20.089844c3.0625-3.058594 8.023437-3.058594 11.082031 0 3.0625 3.0625 3.0625 8.023437 0 11.082031l-20.085938 20.089844c-1.53125 1.53125-3.535156 2.292969-5.542968 2.292969zm0 0"/></g><path d="m244.507812 56.035156c-3.554687 0-6.804687-2.5625-7.617187-6.023437-.800781-3.402344.832031-7.039063 3.898437-8.710938 5.328126-2.902343 12.210938 1.746094 11.507813 7.769531-.453125 3.878907-3.871094 6.964844-7.789063 6.964844zm0 0" fill="#1e2628"/>
</symbol>

<symbol id="icon-television" viewBox="0 0 512 512">
<title>television</title>
<g>
	<path style="fill:#605353;" d="M468.364,368v23.273c0,4.82,3.908,8.727,8.727,8.727c4.82,0,8.727-3.908,8.727-8.727V368H468.364z"
		/>
	<path style="fill:#605353;" d="M433.455,391.273c0,4.82,3.908,8.727,8.727,8.727c4.82,0,8.727-3.908,8.727-8.727V368h-17.455
		V391.273z"/>
	<path style="fill:#605353;" d="M398.545,391.273c0,4.82,3.908,8.727,8.727,8.727c4.82,0,8.727-3.908,8.727-8.727V368h-17.455
		V391.273z"/>
	<rect x="226.909" y="344.727" style="fill:#605353;" width="58.182" height="116.364"/>
</g>
<path style="fill:#463836;" d="M512,368c0,6.4-5.236,11.636-11.636,11.636H11.636C5.236,379.636,0,374.4,0,368V53.818
	c0-6.4,5.236-11.636,11.636-11.636h488.727c6.4,0,11.636,5.236,11.636,11.636V368z"/>
<rect x="34.909" y="77.091" style="fill:#6FC5D6;" width="442.182" height="267.636"/>
<path style="fill:#463836;" d="M395.636,469.818H116.364c-4.82,0-8.727-3.908-8.727-8.727c0-4.82,3.907-8.727,8.727-8.727h279.273
	c4.82,0,8.727,3.908,8.727,8.727C404.364,465.911,400.456,469.818,395.636,469.818z"/>
</symbol>

<symbol id="icon-motorcycle" viewBox="0 0 496 496">
<title>motorcycle</title>
<path style="fill:#FF9D00;" d="M264.8,298.1c4-12.8,7.2-27.2,8.8-44c2.4-28-132.8-20.8-198.4-20.8S36,251.7,36,294.9
	s52.8,78.4,118.4,78.4c21.6,0,40.8-4,56.8-12c3.2,15.2,23.2,19.2,42.4,19.2c20.8,0-2.4-16-2.4-34.4
	C252,334.9,260.8,313.3,264.8,298.1z"/>
<g>
	<path style="fill:#FF8500;" d="M247.2,299.7c4.8-12.8,7.2-27.2,8.8-44c2.4-28-116-22.4-181.6-22.4s-39.2,18.4-39.2,61.6
		s52.8,78.4,118.4,78.4c21.6,0,40.8-4,56.8-12c3.2,15.2,23.2,19.2,42.4,19.2c20.8,0-2.4-16-2.4-34.4
		C252,334.9,243.2,314.1,247.2,299.7z"/>
	<path style="fill:#FF8500;" d="M382.4,233.3c0,4-3.2,7.2-7.2,7.2l0,0c-4,0-7.2-3.2-7.2-7.2v-36.8c0-4,3.2-7.2,7.2-7.2l0,0
		c4,0,7.2,3.2,7.2,7.2V233.3z"/>
	<path style="fill:#FF8500;" d="M84.8,322.1c0,24-15.2,44-32.8,44H36.8c-18.4,0-32.8-20-32.8-44l0,0c0-24,15.2-44,32.8-44h14.4
		C69.6,278.1,84.8,298.1,84.8,322.1L84.8,322.1z"/>
</g>
<path style="fill:#203547;" d="M492.8,382.9c0,31.2-25.6,56.8-56.8,56.8s-56.8-25.6-56.8-56.8s25.6-56.8,56.8-56.8
	C468,326.1,492.8,351.7,492.8,382.9z"/>
<path style="fill:#122130;" d="M476.8,342.9c22.4,22.4,22.4,58.4,0,80c-22.4,22.4-58.4,22.4-80,0"/>
<circle style="fill:#FFA300;" cx="436" cy="382.9" r="36"/>
<path style="fill:#FF8500;" d="M461.6,358.1c13.6,13.6,13.6,36.8,0,50.4s-36.8,13.6-50.4,0"/>
<circle style="fill:#CED8DD;" cx="436" cy="382.9" r="31.2"/>
<path style="fill:#B2BBC1;" d="M458.4,361.3c12,12,12,32,0,44s-32,12-44,0"/>
<path style="opacity:0.2;fill:#888F91;enable-background:new    ;" d="M451.2,382.9c0,8-6.4,16.8-14.4,16.8s-14.4-8.8-14.4-16.8
	s6.4-14.4,14.4-14.4C444,368.5,451.2,374.9,451.2,382.9z"/>
<circle style="fill:#E7EFF2;" cx="436" cy="382.9" r="14.4"/>
<path style="fill:#DAE6EA;" d="M436,368.5c8,0,14.4,6.4,14.4,14.4s-6.4,14.4-14.4,14.4"/>
<path style="fill:#666E70;" d="M436,351.7c-1.6,0-3.2,0-4,0c0.8,4.8,2.4,8,4,8s4-3.2,4-8C439.2,351.7,437.6,351.7,436,351.7z"/>
<path style="fill:#535A5B;" d="M436,359.7c1.6,0,4-3.2,4-8c-1.6,0-2.4,0-4,0"/>
<path style="fill:#666E70;" d="M432,414.1c2.4,0,5.6,0,8,0c-0.8-4.8-2.4-8-4-8S432.8,409.3,432,414.1z"/>
<path style="fill:#535A5B;" d="M440.8,414.1c-0.8-4.8-2.4-8-4-8"/>
<path style="fill:#666E70;" d="M411.2,364.5c4,2.4,7.2,4,8.8,2.4c1.6-1.6,0-4.8-2.4-8.8C415.2,359.7,412.8,362.1,411.2,364.5z"/>
<path style="fill:#535A5B;" d="M420,366.9c1.6-1.6,0-4.8-2.4-8.8"/>
<path style="fill:#B2BBC1;" d="M441.6,378.9c2.4,3.2,1.6,7.2-1.6,9.6l0,0c-3.2,2.4-7.2,1.6-9.6-1.6L400,346.1
	c-2.4-3.2-1.6-7.2,1.6-9.6l0,0c3.2-2.4,7.2-1.6,9.6,1.6L441.6,378.9z"/>
<path style="fill:#666E70;" d="M460.8,402.1c-3.2-2.4-7.2-4-8-2.4c-1.6,1.6,0,4.8,2.4,8c0.8-0.8,2.4-1.6,3.2-2.4
	S460,402.9,460.8,402.1z"/>
<path style="fill:#535A5B;" d="M458.4,405.3c0.8-0.8,1.6-2.4,2.4-3.2c-3.2-2.4-7.2-4-8-2.4"/>
<path style="fill:#666E70;" d="M405.6,386.9c4.8-0.8,8-2.4,8-4s-3.2-4-8-4c0,1.6,0,2.4,0,4C404.8,384.5,404.8,386.1,405.6,386.9z"/>
<path style="fill:#535A5B;" d="M412.8,382.9c0-1.6-3.2-4-8-4c0,1.6,0,2.4,0,4"/>
<path style="fill:#666E70;" d="M459.2,382.9c0,1.6,3.2,3.2,8,4c0-2.4,0-5.6,0-8C462.4,379.7,459.2,381.3,459.2,382.9z"/>
<path style="fill:#535A5B;" d="M467.2,378.9c-4.8,0.8-8,2.4-8,4"/>
<path style="fill:#666E70;" d="M411.2,402.1c1.6,2.4,4,4,5.6,5.6c2.4-3.2,4-7.2,2.4-8.8C418.4,398.1,415.2,398.9,411.2,402.1z"/>
<path style="fill:#535A5B;" d="M417.6,407.7c2.4-3.2,4-7.2,2.4-8.8"/>
<path style="fill:#666E70;" d="M455.2,358.1c-2.4,3.2-4,7.2-2.4,8.8c1.6,1.6,4.8,0,8.8-2.4C459.2,362.1,457.6,359.7,455.2,358.1z"/>
<path style="fill:#535A5B;" d="M455.2,358.1c-2.4,3.2-4,7.2-2.4,8.8"/>
<path d="M182.4,379.7c0,1.6-1.6,3.2-3.2,3.2h-152c-1.6,0-3.2-1.6-3.2-3.2l0,0c0-1.6,1.6-3.2,3.2-3.2H180
	C181.6,376.5,182.4,378.1,182.4,379.7L182.4,379.7z"/>
<path d="M36.8,377.3c0-36.8,29.6-67.2,67.2-67.2c36.8,0,67.2,29.6,67.2,67.2"/>
<path style="fill:#8E8E8E;" d="M172.8,377.3h-5.6c0-35.2-28.8-64-64-64s-64,28.8-64,64h-5.6c0-38.4,31.2-69.6,69.6-69.6
	S172.8,338.9,172.8,377.3z"/>
<circle style="fill:#203547;" cx="103.2" cy="379.7" r="60"/>
<path style="fill:#122130;" d="M145.6,337.3c23.2,23.2,23.2,61.6,0,85.6c-23.2,23.2-61.6,23.2-85.6,0"/>
<circle style="fill:#FFA300;" cx="103.2" cy="379.7" r="37.6"/>
<path style="fill:#FF8500;" d="M130.4,352.5c15.2,15.2,15.2,39.2,0,53.6c-14.4,15.2-39.2,15.2-53.6,0"/>
<circle style="fill:#CED8DD;" cx="103.2" cy="379.7" r="32.8"/>
<path style="fill:#B2BBC1;" d="M126.4,356.5c12.8,12.8,12.8,33.6,0,47.2c-12.8,12.8-33.6,12.8-47.2,0"/>
<path style="opacity:0.2;fill:#888F91;enable-background:new    ;" d="M118.4,379.7c0,8.8-7.2,17.6-15.2,17.6
	c-8.8,0-15.2-9.6-15.2-17.6c0-8.8,7.2-15.2,15.2-15.2C112,364.5,118.4,370.9,118.4,379.7z"/>
<path style="fill:#E7EFF2;" d="M118.4,379.7c0,8.8-7.2,15.2-15.2,15.2c-8.8,0-15.2-7.2-15.2-15.2c0-8.8,7.2-15.2,15.2-15.2
	C112,364.5,118.4,370.9,118.4,379.7z"/>
<path style="fill:#DAE6EA;" d="M103.2,364.5c8.8,0,15.2,7.2,15.2,15.2c0,8.8-7.2,15.2-15.2,15.2"/>
<path style="fill:#666E70;" d="M103.2,346.1c-1.6,0-3.2,0-4.8,0c0.8,4.8,2.4,8,4.8,8s4-3.2,4.8-8
	C106.4,346.9,104.8,346.1,103.2,346.1z"/>
<path style="fill:#535A5B;" d="M103.2,354.9c2.4,0,4-3.2,4.8-8c-1.6,0-3.2,0-4.8,0"/>
<path style="fill:#666E70;" d="M99.2,412.5c3.2,0,5.6,0,8.8,0c-0.8-4.8-2.4-8-4.8-8C100.8,404.5,99.2,407.7,99.2,412.5z"/>
<path style="fill:#535A5B;" d="M108,412.5c-0.8-4.8-2.4-8-4.8-8"/>
<path style="fill:#666E70;" d="M76.8,359.7c4,3.2,7.2,4,8.8,2.4c1.6-1.6,0-4.8-2.4-8.8C80.8,354.9,78.4,357.3,76.8,359.7z"/>
<path style="fill:#535A5B;" d="M85.6,362.1c1.6-1.6,0-4.8-2.4-8.8"/>
<path style="fill:#666E70;" d="M129.6,399.7c-4-3.2-7.2-4-8.8-2.4c-1.6,1.6,0,4.8,2.4,8.8c0.8-0.8,2.4-1.6,3.2-3.2
	C128,402.1,128.8,400.5,129.6,399.7z"/>
<path style="fill:#535A5B;" d="M126.4,402.9c0.8-0.8,1.6-2.4,3.2-3.2c-4-3.2-7.2-4-8.8-2.4"/>
<path style="fill:#666E70;" d="M70.4,383.7c4.8-0.8,8-2.4,8-4.8s-3.2-4-8-4.8c0,1.6,0,3.2,0,4.8S70.4,382.9,70.4,383.7z"/>
<path style="fill:#535A5B;" d="M78.4,379.7c0-2.4-3.2-4-8-4.8c0,1.6,0,3.2,0,4.8"/>
<path style="fill:#666E70;" d="M128,379.7c0,2.4,3.2,4,8,4.8c0.8-3.2,0.8-5.6,0-8.8C131.2,375.7,128,377.3,128,379.7z"/>
<path style="fill:#535A5B;" d="M136,374.9c-4.8,0.8-8,2.4-8,4.8"/>
<path style="fill:#666E70;" d="M76.8,399.7c1.6,2.4,4,4.8,6.4,6.4c3.2-4,4-7.2,2.4-8.8C84,395.7,80.8,396.5,76.8,399.7z"/>
<path style="fill:#535A5B;" d="M83.2,406.1c3.2-4,4-7.2,2.4-8.8"/>
<path style="fill:#666E70;" d="M123.2,353.3c-3.2,4-4,7.2-2.4,8.8c1.6,1.6,4.8,0,8.8-2.4C128,357.3,125.6,354.9,123.2,353.3z"/>
<path style="fill:#535A5B;" d="M123.2,353.3c-3.2,4-4,7.2-2.4,8.8"/>
<path style="fill:#FF9D00;" d="M496,358.9c-7.2-36.8-74.4-76-112.8-76c-39.2,0-12.8,39.2-20,76H496z"/>
<path style="fill:#FF8500;" d="M476.8,358.9c-7.2-38.4-52-74.4-91.2-74.4s-34.4,36-42.4,74.4H476.8z"/>
<path style="fill:#8C5218;" d="M260.8,230.9c0,4.8-4,8.8-8.8,8.8H42.4c-4.8,0-8.8-4-8.8-8.8v-36c0-4.8,4-8.8,8.8-8.8l172.8,8.8
	c4.8,0,45.6-4.8,45.6,0L260.8,230.9L260.8,230.9z"/>
<path style="fill:#6B3E15;" d="M260.8,230.9c0,4.8-4,8.8-8.8,8.8H42.4c-4.8,0-8.8-4-8.8-8.8l6.4-21.6c0-4.8,4-8.8,8.8-8.8l166.4-4.8
	c4.8,0,45.6-4.8,45.6,0V230.9z"/>
<path style="fill:#FF8500;" d="M404.8,294.1c0,5.6-39.2,91.2-44.8,91.2h-20.8c-5.6,0-10.4-4.8-10.4-10.4l20-115.2
	c0-5.6,11.2-43.2,16.8-43.2H380c5.6,0,10.4,4.8,10.4,10.4L404.8,294.1z"/>
<path style="fill:#FF9D00;" d="M380,216.5h-14.4c-1.6,0-2.4,1.6-4,4.8c0.8,1.6,1.6,3.2,1.6,5.6l-12.8,148c0,4.8-7.2,8.8-13.6,9.6
	c0.8,0,1.6,0.8,2.4,0.8H360c5.6,0,16.8-4.8,16.8-10.4l12.8-148C389.6,221.3,385.6,216.5,380,216.5z"/>
<path style="fill:#FFB000;" d="M224.8,378.1c-10.4-51.2-72.8-99.2-127.2-99.2s-82.4,48-92.8,99.2L224.8,378.1L224.8,378.1z"/>
<g>
	<path style="fill:#FF9D00;" d="M224.8,378.1c-10.4-51.2-72.8-88.8-127.2-88.8S14.4,326.1,4,378.1H224.8z"/>
	<path style="fill:#FF9D00;" d="M353.6,377.3c0,4-3.2,8-8,8H8c-4,0-8-3.2-8-8v-2.4c0-4,3.2-8,8-8h338.4c4,0,8,3.2,8,8v2.4H353.6z"/>
	<path style="fill:#FF9D00;" d="M402.4,138.9c-3.2-0.8-7.2-0.8-11.2-0.8c-27.2,0-48.8,15.2-48.8,34.4c0,19.2,21.6,34.4,48.8,34.4
		c4,0,7.2,0,11.2-0.8V138.9z"/>
</g>
<path style="fill:#FF8500;" d="M406.4,199.7c0,3.2-3.2,6.4-6.4,6.4l0,0c-3.2,0-6.4-3.2-6.4-6.4v-54.4c0-3.2,3.2-6.4,6.4-6.4l0,0
	c3.2,0,6.4,3.2,6.4,6.4V199.7z"/>
<g>
	<path style="fill:#FFB000;" d="M116,324.5c0,1.6-0.8,2.4-2.4,2.4H80c-1.6,0-2.4-0.8-2.4-2.4l0,0c0-1.6,0.8-2.4,2.4-2.4h33.6
		C114.4,322.1,116,322.9,116,324.5L116,324.5z"/>
	<path style="fill:#FFB000;" d="M116,338.1c0,1.6-0.8,2.4-2.4,2.4H80c-1.6,0-2.4-0.8-2.4-2.4l0,0c0-1.6,0.8-2.4,2.4-2.4h33.6
		C114.4,335.7,116,336.5,116,338.1L116,338.1z"/>
	<path style="fill:#FFB000;" d="M116,351.7c0,1.6-0.8,2.4-2.4,2.4H80c-1.6,0-2.4-0.8-2.4-2.4l0,0c0-1.6,0.8-2.4,2.4-2.4h33.6
		C114.4,349.3,116,350.1,116,351.7L116,351.7z"/>
</g>
<circle style="fill:#6B3E15;" cx="336.8" cy="163.7" r="16.8"/>
<circle style="fill:#824C20;" cx="328.8" cy="163.7" r="12.8"/>
<path style="fill:#768689;" d="M367.2,153.3c-3.2,0-5.6-2.4-5.6-5.6v-31.2l-20.8-20.8c-2.4-2.4-2.4-5.6,0-8s5.6-2.4,8,0l22.4,22.4
	c0.8,0.8,1.6,2.4,1.6,4v33.6C372.8,150.9,370.4,153.3,367.2,153.3z"/>
<path style="fill:#FF9D00;" d="M327.2,55.7v48.8c11.2-2.4,19.2-12.8,19.2-24.8C347.2,67.7,338.4,58.1,327.2,55.7z"/>
</symbol>


<symbol id="icon-equipment" viewBox="0 0 110 110">
<title>equipment</title>
<path d="m78.674202 90.762993h4.23701v4.23701h-4.23701z" fill="#474c5b"/><path d="m26.563843 90.762993h4.23701v4.23701h-4.23701z" fill="#474c5b"/><path d="m83.6932297 15h-57.3863983c-2.5713387 0-4.6558285 2.0844307-4.6558285 4.6557693v67.8679657c0 2.5713425 2.0844898 4.6558304 4.6558285 4.6558304h57.3863983c2.5713348 0 4.6557693-2.0844879 4.6557693-4.6558304v-67.8679657c0-2.5713386-2.0844345-4.6557693-4.6557693-4.6557693z" fill="#e1e6e9"/><path d="m21.6510029 82.9482193v4.5755157c0 2.5713425 2.0844898 4.6558304 4.6558285 4.6558304h57.3863983c2.5713348 0 4.6557693-2.0844879 4.6557693-4.6558304v-4.5755157z" fill="#d5d6db"/><path d="m21.651003 29.901732h66.69799v1.500762h-66.69799z" fill="#64798a"/><circle cx="55" cy="60.909" fill="#474c5b" r="15.111"/><path d="m67.321701 60.9133301c0 6.7997894-5.5146217 12.314415-12.3239555 12.314415-2.1770935 0-4.2295074-.5658798-6.0037498-1.5632858-1.5153389-.8439789-2.8292542-2.0044708-3.8650589-3.3854599v-.0096054c-.5466728-.7192993-1.0070038-1.5057373-1.3714561-2.3305206-.326046-.7192917-.5850143-1.467392-.757637-2.2538338-.2110252-.891922-.3165092-1.8221855-.3165092-2.7717094 0-6.8093338 5.5146217-12.3239517 12.3144112-12.3239517.9590645 0 1.889328.105484 2.7812538.3165054.786438.1822243 1.5440788.431591 2.2538338.7576408.8343811.3740501 1.6112213.8343811 2.3305206 1.3714561h.0095978c1.3810577 1.0358047 2.5414848 2.34972 3.3854713 3.8650551.9974059 1.7838478 1.563278 3.8266601 1.563278 6.0132942z" fill="#00abee"/><ellipse cx="77.905" cy="22.659" fill="#4d5c7d" rx="2.784" ry="2.784" transform="matrix(.526 -.851 .851 .526 17.672 77.016)"/><path d="m80.2265472 20.3374481c-.1802521-.1802521-.4725037-.1802673-.652771 0l-3.9912262 3.9912262c-.1802521.1802521-.1802368.4725037.0000153.6527557.1802521.1802502.4724884.1802502.6527405 0l3.9912262-3.9912262c.1802673-.1802673.1802673-.4725036.0000152-.6527557z" fill="#64798a"/><ellipse cx="55" cy="22.659" fill="#4d5c7d" rx="2.784" ry="2.784" transform="matrix(.973 -.23 .23 .973 -3.735 13.243)"/><path d="m55.0000114 19.3756409c-.2549133 0-.4615784.2066422-.4615784.4615784v5.6444454c0 .2549152.206665.4615574.4615784.4615574s.4615555-.2066422.4615555-.4615574v-5.6444454c0-.2549363-.2066421-.4615784-.4615555-.4615784z" fill="#64798a"/><ellipse cx="32.095" cy="22.659" fill="#4d5c7d" rx="2.784" ry="2.784" transform="matrix(.526 -.851 .851 .526 -4.053 38.049)"/><path d="m34.41745 20.3374481c-.1802521-.1802521-.4725037-.1802673-.652771 0l-3.9912243 3.9912262c-.1802521.1802521-.1802368.4725037.0000153.6527557.1802521.1802502.4724884.1802502.6527386 0l3.9912262-3.9912262c.1802672-.1802673.1802672-.4725036.0000152-.6527557z" fill="#64798a"/><g fill="#fff" opacity=".25"><path d="m60.0328331 49.6635246-16.2753525 16.2753487c-.326046-.7192917-.5850143-1.467392-.757637-2.2538338l14.7791557-14.7791557c.786438.1822243 1.5440789.431591 2.2538338.7576408z"/><path d="m65.7584229 54.9000359-16.7644272 16.7644233c-1.5153389-.8439789-2.8292542-2.0044708-3.8650589-3.3854599v-.0096054l17.234417-17.2344131h.0095978c1.3810576 1.0358047 2.5414847 2.34972 3.3854713 3.8650551z"/></g>
</symbol>



</defs>
</svg>
