<svg id="Capa_1" enable-background="new 0 0 512 512" height="512" viewBox="0 0 512 512" width="512" xmlns="http://www.w3.org/2000/svg"><path d="m416.667 423.633c-52.567 0-95.333-42.767-95.333-95.333s42.766-95.333 95.333-95.333 95.333 42.766 95.333 95.333-42.767 95.333-95.333 95.333zm0-160.666c-36.025 0-65.333 29.308-65.333 65.333s29.308 65.333 65.333 65.333 65.333-29.308 65.333-65.333-29.309-65.333-65.333-65.333z" fill="#002c3c"/><path d="m95.333 423.633c-52.566 0-95.333-42.766-95.333-95.333s42.767-95.333 95.333-95.333 95.333 42.766 95.333 95.333-42.766 95.333-95.333 95.333zm0-160.666c-36.024 0-65.333 29.308-65.333 65.333s29.309 65.333 65.333 65.333 65.333-29.309 65.333-65.333-29.308-65.333-65.333-65.333z" fill="#002c3c"/><path d="m409.902 136.567c-8.284 0-15 6.716-15 15s6.716 15 15 15c17.13 0 31.066-13.937 31.066-31.067 0-26.266-21.311-47.133-47.133-47.133h-71.877c-5.025 0-9.717 2.517-12.496 6.703-2.78 4.187-3.278 9.487-1.329 14.118l25.058 59.513h-148.698l-27.131-48.836c-4.023-7.242-13.156-9.852-20.397-5.828-7.242 4.023-9.851 13.155-5.828 20.397l27.37 49.266-76.286 137.315c-2.581 4.646-2.511 10.311.184 14.892s7.613 7.393 12.928 7.393h160.667c4.93 0 9.546-2.423 12.346-6.48l84.235-122.069 50.261 119.37c1.571 3.73 8.698 12.613 19.646 8.004 7.635-3.215 11.219-12.011 8.004-19.646l-85.942-204.112h49.286c9.476 0 17.133 7.675 17.133 17.133-.001.588-.479 1.067-1.067 1.067zm-234.235 78.02 54.841 98.713h-109.682zm81.711 85.306-56.218-101.193h126.047z" fill="#3aaaff"/><path d="m175.667 134.434h-64.267c-8.284 0-15-6.716-15-15s6.716-15 15-15h64.267c8.284 0 15 6.716 15 15s-6.716 15-15 15z" fill="#ffbe1e"/><path d="m393.835 88.367h-71.877c-5.025 0-9.717 2.517-12.496 6.703-2.78 4.187-3.278 9.487-1.329 14.118l25.058 59.513h-77.191v30h71.207l-69.829 101.193-1.378-2.48v45.886c4.93 0 9.546-2.423 12.346-6.48l84.235-122.069 50.261 119.37c1.571 3.73 8.698 12.613 19.646 8.004 7.635-3.215 11.219-12.011 8.004-19.646l-85.942-204.112h49.286c9.476 0 17.133 7.675 17.133 17.133 0 .588-.479 1.067-1.066 1.067-8.284 0-15 6.716-15 15s6.716 15 15 15c17.13 0 31.066-13.937 31.066-31.067-.001-26.266-21.312-47.133-47.134-47.133z" fill="#0082ff"/></svg>