<svg id="Flat"  viewBox="0 0 64 64"  xmlns="http://www.w3.org/2000/svg"><path d="m9 36v-15.556c0-2.454.9-4.444 2-4.444h42c1.1 0 2 1.99 2 4.444v15.556z" fill="#bd2029"/><rect fill="#891024" height="10" rx="2" width="18" x="13" y="22"/><rect fill="#891024" height="10" rx="2" width="18" x="33" y="22"/><rect fill="#96111b" height="4" rx="2" width="46" x="9" y="32"/><path d="m9 36h46v7h-46z" fill="#891024"/><path d="m9 48h3a1 1 0 0 0 1-1 1 1 0 0 1 1-1h36a1 1 0 0 1 1 1 1 1 0 0 0 1 1h3v-5h-46z" fill="#7c0917"/><g fill="#96111b"><path d="m3 27h6v21h-6z"/><path d="m55 27h6v21h-6z"/></g></svg>