<svg height="504pt" viewBox="0 -56 504 504" width="504pt" xmlns="http://www.w3.org/2000/svg"><path d="m264.160156 176.167969h31.917969v24h-31.917969zm0 0" fill="#aab2bd"/><path d="m328 88.480469v73.28125c-.808594 8.078125-7.601562 14.40625-15.921875 14.40625h-16v-87.6875zm0 0" fill="#545c66"/><path d="m296.078125 88.480469v47.6875h-256.078125v-96.078125c.078125-17.769532 14.398438-32.097656 32.160156-32.097656l191.917969.167968c17.683594 0 31.921875 14.230469 32 31.917969zm0 0" fill="#434a54"/><path d="m40 136.167969v40h-16c-8.808594 0-16-7.199219-16-16v-71.839844h32zm0 0" fill="#545c66"/><path d="m296.078125 136.167969v40h-256.078125v-40zm0 0" fill="#656d78"/><path d="m40 176.167969h32.160156v24h-32.160156zm0 0" fill="#aab2bd"/><path d="m104 272.246094c30.960938 0 56 25.035156 56 56 0 30.953125-25.039062 56-56 56s-56-25.046875-56-56c0-30.964844 25.039062-56 56-56zm24 56c0-13.277344-10.71875-24-24-24s-24 10.722656-24 24c0 13.28125 10.71875 24 24 24s24-10.71875 24-24zm0 0" fill="#656d78"/><path d="m104 304.246094c13.28125 0 24 10.722656 24 24 0 13.28125-10.71875 24-24 24s-24-10.71875-24-24c0-13.277344 10.71875-24 24-24zm0 0" fill="#ccd1d9"/><path d="m400 304.246094c13.28125 0 24 10.722656 24 24 0 13.28125-10.71875 24-24 24s-24-10.71875-24-24c0-13.277344 10.71875-24 24-24zm0 0" fill="#ccd1d9"/><path d="m400 272.246094c30.960938 0 56 25.035156 56 56 0 30.953125-25.039062 56-56 56s-56-25.046875-56-56c0-30.964844 25.039062-56 56-56zm24 56c0-13.277344-10.71875-24-24-24s-24 10.722656-24 24c0 13.28125 10.71875 24 24 24s24-10.71875 24-24zm0 0" fill="#656d78"/><path d="m352 112.246094h32v64h-32zm0 0" fill="#5d9cec"/><path d="m416.640625 112.246094 39.359375 64h-72v-64zm0 0" fill="#5d9cec"/><path d="m328 200.246094v32h-320v-32zm0 0" fill="#a0d468"/><path d="m416.640625 112.246094h-64.640625v64h104zm-88.5625-24h103.921875l64 104v136h-40c0-30.964844-25.039062-56-56-56s-56 25.035156-56 56h-184c0-30.964844-25.039062-56-56-56s-56 25.035156-56 56h-40v-96h320v-70.484375c.078125-.488281.078125-1.050781.078125-1.59375zm0 0" fill="#a0d468"/><path d="m496 288.238281c-4.425781 0-8-3.574219-8-8v-88c0-4.421875 3.574219-8 8-8s8 3.578125 8 8v88c0 4.417969-3.574219 8-8 8zm0 0"/><path d="m496.007812 200.238281c-2.6875 0-5.3125-1.351562-6.824218-3.804687l-64-104c-2.3125-3.769532-1.144532-8.699219 2.617187-11.007813 3.773438-2.328125 8.695313-1.144531 11.007813 2.613281l64 104c2.3125 3.769532 1.144531 8.695313-2.617188 11.007813-1.3125.808594-2.75 1.191406-4.183594 1.191406zm0 0"/><path d="m456.007812 184.238281c-2.6875 0-5.3125-1.351562-6.824218-3.804687l-39.390625-64.019532c-2.320313-3.765624-1.144531-8.695312 2.613281-11.007812 3.785156-2.316406 8.699219-1.140625 11.007812 2.617188l39.394532 64.015624c2.320312 3.769532 1.144531 8.695313-2.617188 11.007813-1.3125.808594-2.75 1.191406-4.183594 1.191406zm0 0"/><path d="m432 96.238281h-135.921875c-4.421875 0-8-3.574219-8-8 0-4.421875 3.578125-8 8-8h135.921875c4.425781 0 8 3.578125 8 8 0 4.425781-3.574219 8-8 8zm0 0"/><path d="m328 264.238281c-4.425781 0-8-3.574219-8-8v-167.949219c0-4.425781 3.574219-8 8-8s8 3.574219 8 8v167.941407c0 4.425781-3.574219 8.007812-8 8.007812zm0 0"/><path d="m328 240.238281h-320c-4.425781 0-8-3.574219-8-8 0-4.421875 3.574219-8 8-8h320c4.425781 0 8 3.578125 8 8 0 4.425781-3.574219 8-8 8zm0 0"/><path d="m8 288.238281c-4.425781 0-8-3.574219-8-8v-80c0-4.421875 3.574219-8 8-8s8 3.578125 8 8v80c0 4.417969-3.574219 8-8 8zm0 0"/><path d="m328 208.238281h-320c-4.425781 0-8-3.574219-8-8 0-4.421875 3.574219-8 8-8h320c4.425781 0 8 3.578125 8 8 0 4.425781-3.574219 8-8 8zm0 0"/><path d="m8 336.238281c-4.425781 0-8-3.574219-8-8v-48c0-4.421875 3.574219-8 8-8s8 3.578125 8 8v48c0 4.417969-3.574219 8-8 8zm0 0"/><path d="m344 336.238281h-184c-4.425781 0-8-3.574219-8-8 0-4.421875 3.574219-8 8-8h184c4.425781 0 8 3.578125 8 8 0 4.425781-3.574219 8-8 8zm0 0"/><path d="m496 336.238281c-4.425781 0-8-3.574219-8-8v-48c0-4.421875 3.574219-8 8-8s8 3.578125 8 8v48c0 4.417969-3.574219 8-8 8zm0 0"/><path d="m400 360.238281c-17.648438 0-32-14.351562-32-32 0-17.644531 14.351562-32 32-32s32 14.355469 32 32c0 17.648438-14.351562 32-32 32zm0-48c-8.824219 0-16 7.175781-16 16s7.175781 16 16 16 16-7.175781 16-16-7.175781-16-16-16zm0 0"/><path d="m400 392.238281c-35.289062 0-64-28.710937-64-64 0-35.285156 28.710938-64 64-64s64 28.714844 64 64c0 35.289063-28.710938 64-64 64zm0-112c-26.472656 0-48 21.53125-48 48 0 26.472657 21.527344 48 48 48s48-21.527343 48-48c0-26.46875-21.527344-48-48-48zm0 0"/><path d="m104 360.238281c-17.648438 0-32-14.351562-32-32 0-17.644531 14.351562-32 32-32s32 14.355469 32 32c0 17.648438-14.351562 32-32 32zm0-48c-8.824219 0-16 7.175781-16 16s7.175781 16 16 16 16-7.175781 16-16-7.175781-16-16-16zm0 0"/><path d="m104 392.238281c-35.289062 0-64-28.710937-64-64 0-35.285156 28.710938-64 64-64s64 28.714844 64 64c0 35.289063-28.710938 64-64 64zm0-112c-26.472656 0-48 21.53125-48 48 0 26.472657 21.527344 48 48 48s48-21.527343 48-48c0-26.46875-21.527344-48-48-48zm0 0"/><path d="m48 336.238281h-40c-4.425781 0-8-3.574219-8-8 0-4.421875 3.574219-8 8-8h40c4.425781 0 8 3.578125 8 8 0 4.425781-3.574219 8-8 8zm0 0"/><path d="m496 336.238281h-40c-4.425781 0-8-3.574219-8-8 0-4.421875 3.574219-8 8-8h40c4.425781 0 8 3.578125 8 8 0 4.425781-3.574219 8-8 8zm0 0"/><path d="m352 184.238281c-4.425781 0-8-3.574219-8-8v-64c0-4.421875 3.574219-8 8-8s8 3.578125 8 8v64c0 4.417969-3.574219 8-8 8zm0 0"/><path d="m456 184.238281h-104c-4.425781 0-8-3.574219-8-8 0-4.421875 3.574219-8 8-8h104c4.425781 0 8 3.578125 8 8 0 4.425781-3.574219 8-8 8zm0 0"/><path d="m416.609375 120.238281h-64.609375c-4.425781 0-8-3.574219-8-8 0-4.421875 3.574219-8 8-8h64.609375c4.421875 0 8 3.578125 8 8 0 4.425781-3.578125 8-8 8zm0 0"/><path d="m384 184.238281c-4.425781 0-8-3.574219-8-8v-64.015625c0-4.421875 3.574219-8 8-8s8 3.578125 8 8v64.015625c0 4.417969-3.574219 8-8 8zm0 0"/><path d="m360 232.238281h-8c-4.425781 0-8-3.574219-8-8 0-4.421875 3.574219-8 8-8h8c4.425781 0 8 3.578125 8 8 0 4.425781-3.574219 8-8 8zm0 0"/><path d="m24.015625 184.144531c-13.230469 0-24-10.769531-24-24 0-4.425781 3.578125-8 8-8 4.425781 0 8 3.574219 8 8 0 4.414063 3.585937 8 8 8 4.425781 0 8 3.574219 8 8 0 4.421875-3.574219 8-8 8zm0 0"/><path d="m312.078125 184.144531c-4.421875 0-8-3.578125-8-8 0-4.425781 3.578125-8 8-8 4.417969 0 8-3.585937 8-8 0-4.425781 3.578125-8 8-8 4.425781 0 8 3.574219 8 8 0 13.230469-10.765625 24-24 24zm0 0"/><path d="m8.015625 168.144531c-4.421875 0-8-3.578125-8-8v-72.023437c0-4.425782 3.578125-8 8-8 4.425781 0 8 3.574218 8 8v72.023437c0 4.421875-3.574219 8-8 8zm0 0"/><path d="m312.078125 184.144531h-288.0625c-4.421875 0-8-3.578125-8-8 0-4.425781 3.578125-8 8-8h288.0625c4.425781 0 8 3.574219 8 8 0 4.421875-3.574219 8-8 8zm0 0"/><path d="m328.078125 168.144531c-4.421875 0-8-3.578125-8-8v-72.023437c0-4.425782 3.578125-8 8-8 4.425781 0 8 3.574218 8 8v72.023437c0 4.421875-3.574219 8-8 8zm0 0"/><path d="m296.078125 208.167969c-4.421875 0-8-3.574219-8-8v-160.097657c0-4.421874 3.578125-8 8-8 4.425781 0 8 3.578126 8 8v160.097657c0 4.425781-3.574219 8-8 8zm0 0"/><path d="m40.015625 208.167969c-4.421875 0-8-3.574219-8-8v-160.097657c0-4.421874 3.578125-8 8-8 4.425781 0 8 3.578126 8 8v160.097657c0 4.425781-3.574219 8-8 8zm0 0"/><path d="m40.015625 48.128906c-4.421875 0-8-3.578125-8-8 0-22.128906 18-40.128906 40.128906-40.128906 4.421875 0 8 3.574219 8 8s-3.578125 8-8 8c-13.304687 0-24.128906 10.824219-24.128906 24.128906 0 4.421875-3.574219 8-8 8zm0 0"/><path d="m296.078125 48.121094c-4.421875 0-8-3.578125-8-8 0-13.234375-10.765625-24-24-24-4.421875 0-8-3.578125-8-8 0-4.425782 3.578125-8 8-8 22.058594 0 40 17.941406 40 40 0 4.421875-3.574219 8-8 8zm0 0"/><path d="m264.078125 16.121094-191.941406-.121094c-4.417969 0-7.992188-3.585938-7.992188-8.007812 0-4.417969 3.582031-7.992188 8-7.992188h.007813l191.9375.121094c4.414062 0 7.988281 3.582031 7.988281 8.007812 0 4.414063-3.582031 7.992188-8 7.992188zm0 0"/><path d="m296.078125 144.144531h-255.390625c-4.421875 0-8-3.578125-8-8 0-4.425781 3.578125-8 8-8h255.390625c4.425781 0 8 3.574219 8 8 0 4.421875-3.574219 8-8 8zm0 0"/><path d="m72.152344 208.144531c-4.425782 0-8-3.578125-8-8v-23.992187c0-4.425782 3.574218-8 8-8 4.421875 0 8 3.574218 8 8v23.992187c0 4.421875-3.585938 8-8 8zm0 0"/><path d="m72.152344 208.144531h-32.136719c-4.421875 0-8-3.578125-8-8 0-4.425781 3.578125-8 8-8h32.136719c4.421875 0 8 3.574219 8 8 0 4.421875-3.585938 8-8 8zm0 0"/><path d="m264.191406 208.167969c-4.421875 0-8-3.574219-8-8v-24.023438c0-4.425781 3.578125-8 8-8 4.425782 0 8 3.574219 8 8v24.023438c0 4.425781-3.574218 8-8 8zm0 0"/><path d="m296.078125 208.167969h-31.878906c-4.421875 0-8-3.574219-8-8s3.578125-8 8-8h31.878906c4.425781 0 8 3.574219 8 8s-3.574219 8-8 8zm0 0"/><path d="m168.167969 96.222656c-4.425781 0-8.039063-3.574218-8.039063-8 0-4.421875 3.535156-8 7.949219-8h.089844c4.417969 0 8 3.578125 8 8 0 4.425782-3.59375 8-8 8zm0 0"/><path d="m232.296875 96.222656c-4.425781 0-8.039063-3.574218-8.039063-8 0-4.421875 3.535157-8 7.949219-8h.089844c4.414063 0 8 3.578125 8 8 0 4.425782-3.585937 8-8 8zm0 0"/><path d="m104.28125 96.222656c-4.425781 0-8.042969-3.574218-8.042969-8 0-4.421875 3.539063-8 7.953125-8h.089844c4.414062 0 8 3.578125 8 8 0 4.425782-3.585938 8-8 8zm0 0"/><path d="m200.289062 64.097656c-4.425781 0-8.042968-3.578125-8.042968-8 0-4.425781 3.539062-8 7.953125-8h.089843c4.414063 0 8 3.574219 8 8 0 4.421875-3.585937 8-8 8zm0 0"/><path d="m136.289062 64.097656c-4.425781 0-8.042968-3.578125-8.042968-8 0-4.425781 3.539062-8 7.953125-8h.089843c4.414063 0 8 3.574219 8 8 0 4.421875-3.585937 8-8 8zm0 0"/><path d="m40.015625 96.3125h-32c-4.421875 0-8-3.578125-8-8 0-4.425781 3.578125-8 8-8h32c4.425781 0 8 3.574219 8 8 0 4.421875-3.574219 8-8 8zm0 0"/></svg>